<?xml version="1.0" encoding="UTF-8" standalone="no"?>
<!DOCTYPE svg PUBLIC "-//W3C//DTD SVG 1.1//EN"
 "http://www.w3.org/Graphics/SVG/1.1/DTD/svg11.dtd">
<!-- Generated by graphviz version 2.26.3 (20100126.1600)
 -->
<!-- Title: G Pages: 1 -->
<svg width="194pt" height="3494pt"
 viewBox="0.00 0.00 193.54 3494.00" xmlns="http://www.w3.org/2000/svg" xmlns:xlink="http://www.w3.org/1999/xlink">
<g id="graph1" class="graph" transform="scale(1 1) rotate(0) translate(4 3490)">
<title>G</title>
<polygon fill="white" stroke="white" points="-4,5 -4,-3490 190.535,-3490 190.535,5 -4,5"/>
<!-- A00 -->
<g id="node1" class="node"><title>A00</title>
<polygon fill="#aaffaa" stroke="#aaffaa" points="162.535,-3371.5 22.5353,-3371.5 10.5353,-3359.5 10.5353,-3318.5 22.5353,-3306.5 162.535,-3306.5 174.535,-3318.5 174.535,-3359.5 162.535,-3371.5"/>
<path fill="#aaffaa" stroke="#aaffaa" d="M22.5353,-3371.5C16.5353,-3371.5 10.5353,-3365.5 10.5353,-3359.5"/>
<path fill="#aaffaa" stroke="#aaffaa" d="M10.5353,-3318.5C10.5353,-3312.5 16.5353,-3306.5 22.5353,-3306.5"/>
<path fill="#aaffaa" stroke="#aaffaa" d="M162.535,-3306.5C168.535,-3306.5 174.535,-3312.5 174.535,-3318.5"/>
<path fill="#aaffaa" stroke="#aaffaa" d="M174.535,-3359.5C174.535,-3365.5 168.535,-3371.5 162.535,-3371.5"/>
<polyline fill="none" stroke="black" points="162.535,-3371.5 22.5353,-3371.5 "/>
<path fill="none" stroke="black" d="M22.5353,-3371.5C16.5353,-3371.5 10.5353,-3365.5 10.5353,-3359.5"/>
<polyline fill="none" stroke="black" points="10.5353,-3359.5 10.5353,-3318.5 "/>
<path fill="none" stroke="black" d="M10.5353,-3318.5C10.5353,-3312.5 16.5353,-3306.5 22.5353,-3306.5"/>
<polyline fill="none" stroke="black" points="22.5353,-3306.5 162.535,-3306.5 "/>
<path fill="none" stroke="black" d="M162.535,-3306.5C168.535,-3306.5 174.535,-3312.5 174.535,-3318.5"/>
<polyline fill="none" stroke="black" points="174.535,-3318.5 174.535,-3359.5 "/>
<path fill="none" stroke="black" d="M174.535,-3359.5C174.535,-3365.5 168.535,-3371.5 162.535,-3371.5"/>
<text text-anchor="start" x="80.0353" y="-3353.7" font-family="Helvetica,sans-Serif" font-size="12.00">A00</text>
<text text-anchor="start" x="28.0353" y="-3335.2" font-family="Helvetica,sans-Serif" font-size="12.00">AnalysisThreadSeries</text>
<text text-anchor="start" x="23.0353" y="-3317.2" font-family="Helvetica,sans-Serif" font-size="12.00">AnalysisThreadSeries.h</text>
</g>
<!-- A01 -->
<g id="node2" class="node"><title>A01</title>
<polygon fill="#aaffaa" stroke="#aaffaa" points="162.535,-3257.5 22.5353,-3257.5 10.5353,-3245.5 10.5353,-3204.5 22.5353,-3192.5 162.535,-3192.5 174.535,-3204.5 174.535,-3245.5 162.535,-3257.5"/>
<path fill="#aaffaa" stroke="#aaffaa" d="M22.5353,-3257.5C16.5353,-3257.5 10.5353,-3251.5 10.5353,-3245.5"/>
<path fill="#aaffaa" stroke="#aaffaa" d="M10.5353,-3204.5C10.5353,-3198.5 16.5353,-3192.5 22.5353,-3192.5"/>
<path fill="#aaffaa" stroke="#aaffaa" d="M162.535,-3192.5C168.535,-3192.5 174.535,-3198.5 174.535,-3204.5"/>
<path fill="#aaffaa" stroke="#aaffaa" d="M174.535,-3245.5C174.535,-3251.5 168.535,-3257.5 162.535,-3257.5"/>
<polyline fill="none" stroke="black" points="162.535,-3257.5 22.5353,-3257.5 "/>
<path fill="none" stroke="black" d="M22.5353,-3257.5C16.5353,-3257.5 10.5353,-3251.5 10.5353,-3245.5"/>
<polyline fill="none" stroke="black" points="10.5353,-3245.5 10.5353,-3204.5 "/>
<path fill="none" stroke="black" d="M10.5353,-3204.5C10.5353,-3198.5 16.5353,-3192.5 22.5353,-3192.5"/>
<polyline fill="none" stroke="black" points="22.5353,-3192.5 162.535,-3192.5 "/>
<path fill="none" stroke="black" d="M162.535,-3192.5C168.535,-3192.5 174.535,-3198.5 174.535,-3204.5"/>
<polyline fill="none" stroke="black" points="174.535,-3204.5 174.535,-3245.5 "/>
<path fill="none" stroke="black" d="M174.535,-3245.5C174.535,-3251.5 168.535,-3257.5 162.535,-3257.5"/>
<text text-anchor="start" x="80.5353" y="-3239.7" font-family="Helvetica,sans-Serif" font-size="12.00">A01</text>
<text text-anchor="start" x="28.0353" y="-3221.2" font-family="Helvetica,sans-Serif" font-size="12.00">AnalysisThreadSeries</text>
<text text-anchor="start" x="23.0353" y="-3203.2" font-family="Helvetica,sans-Serif" font-size="12.00">AnalysisThreadSeries.h</text>
</g>
<!-- A00&#45;&gt;A01 -->
<g id="edge8" class="edge"><title>A00&#45;&gt;A01</title>
<path fill="none" stroke="black" d="M19.0076,-3306.3C12.909,-3301.01 7.55344,-3294.93 3.53529,-3288 -1.44503,-3279.41 -0.64523,-3271.69 3.77455,-3264.85"/>
<polygon fill="black" stroke="black" points="6.50934,-3267.04 10.4964,-3257.22 1.25823,-3262.41 6.50934,-3267.04"/>
<text text-anchor="middle" x="37.0353" y="-3279" font-family="Courier,monospace" font-size="10.00"> ADCOutput </text>
</g>
<!-- A00&#45;&gt;A01 -->
<g id="edge10" class="edge"><title>A00&#45;&gt;A01</title>
<path fill="none" stroke="black" d="M92.5353,-3306.33C92.5353,-3294.41 92.5353,-3280.73 92.5353,-3268.04"/>
<polygon fill="black" stroke="black" points="96.0354,-3267.67 92.5353,-3257.67 89.0354,-3267.67 96.0354,-3267.67"/>
<text text-anchor="middle" x="110.535" y="-3279" font-family="Courier,monospace" font-size="10.00"> CHAN </text>
</g>
<!-- A00&#45;&gt;A01 -->
<g id="edge12" class="edge"><title>A00&#45;&gt;A01</title>
<path fill="none" stroke="black" d="M124.269,-3306.28C129.832,-3296.89 132.903,-3286.38 129.535,-3276 128.505,-3272.83 127.196,-3269.69 125.688,-3266.61"/>
<polygon fill="black" stroke="black" points="128.598,-3264.65 120.649,-3257.65 122.496,-3268.08 128.598,-3264.65"/>
<text text-anchor="middle" x="143.035" y="-3279" font-family="Courier,monospace" font-size="10.00"> TS </text>
</g>
<!-- A02 -->
<g id="node3" class="node"><title>A02</title>
<polygon fill="#aaffaa" stroke="#aaffaa" points="162.535,-3143.5 22.5353,-3143.5 10.5353,-3131.5 10.5353,-3090.5 22.5353,-3078.5 162.535,-3078.5 174.535,-3090.5 174.535,-3131.5 162.535,-3143.5"/>
<path fill="#aaffaa" stroke="#aaffaa" d="M22.5353,-3143.5C16.5353,-3143.5 10.5353,-3137.5 10.5353,-3131.5"/>
<path fill="#aaffaa" stroke="#aaffaa" d="M10.5353,-3090.5C10.5353,-3084.5 16.5353,-3078.5 22.5353,-3078.5"/>
<path fill="#aaffaa" stroke="#aaffaa" d="M162.535,-3078.5C168.535,-3078.5 174.535,-3084.5 174.535,-3090.5"/>
<path fill="#aaffaa" stroke="#aaffaa" d="M174.535,-3131.5C174.535,-3137.5 168.535,-3143.5 162.535,-3143.5"/>
<polyline fill="none" stroke="black" points="162.535,-3143.5 22.5353,-3143.5 "/>
<path fill="none" stroke="black" d="M22.5353,-3143.5C16.5353,-3143.5 10.5353,-3137.5 10.5353,-3131.5"/>
<polyline fill="none" stroke="black" points="10.5353,-3131.5 10.5353,-3090.5 "/>
<path fill="none" stroke="black" d="M10.5353,-3090.5C10.5353,-3084.5 16.5353,-3078.5 22.5353,-3078.5"/>
<polyline fill="none" stroke="black" points="22.5353,-3078.5 162.535,-3078.5 "/>
<path fill="none" stroke="black" d="M162.535,-3078.5C168.535,-3078.5 174.535,-3084.5 174.535,-3090.5"/>
<polyline fill="none" stroke="black" points="174.535,-3090.5 174.535,-3131.5 "/>
<path fill="none" stroke="black" d="M174.535,-3131.5C174.535,-3137.5 168.535,-3143.5 162.535,-3143.5"/>
<text text-anchor="start" x="80.5353" y="-3125.7" font-family="Helvetica,sans-Serif" font-size="12.00">A02</text>
<text text-anchor="start" x="28.0353" y="-3107.2" font-family="Helvetica,sans-Serif" font-size="12.00">AnalysisThreadSeries</text>
<text text-anchor="start" x="23.0353" y="-3089.2" font-family="Helvetica,sans-Serif" font-size="12.00">AnalysisThreadSeries.h</text>
</g>
<!-- A01&#45;&gt;A02 -->
<g id="edge14" class="edge"><title>A01&#45;&gt;A02</title>
<path fill="none" stroke="black" d="M19.0076,-3192.3C12.909,-3187.01 7.55344,-3180.93 3.53529,-3174 -1.44503,-3165.41 -0.64523,-3157.69 3.77455,-3150.85"/>
<polygon fill="black" stroke="black" points="6.50934,-3153.04 10.4964,-3143.22 1.25823,-3148.41 6.50934,-3153.04"/>
<text text-anchor="middle" x="37.0353" y="-3165" font-family="Courier,monospace" font-size="10.00"> ADCOutput </text>
</g>
<!-- A01&#45;&gt;A02 -->
<g id="edge16" class="edge"><title>A01&#45;&gt;A02</title>
<path fill="none" stroke="black" d="M92.5353,-3192.33C92.5353,-3180.41 92.5353,-3166.73 92.5353,-3154.04"/>
<polygon fill="black" stroke="black" points="96.0354,-3153.67 92.5353,-3143.67 89.0354,-3153.67 96.0354,-3153.67"/>
<text text-anchor="middle" x="110.535" y="-3165" font-family="Courier,monospace" font-size="10.00"> CHAN </text>
</g>
<!-- A01&#45;&gt;A02 -->
<g id="edge18" class="edge"><title>A01&#45;&gt;A02</title>
<path fill="none" stroke="black" d="M124.269,-3192.28C129.832,-3182.89 132.903,-3172.38 129.535,-3162 128.505,-3158.83 127.196,-3155.69 125.688,-3152.61"/>
<polygon fill="black" stroke="black" points="128.598,-3150.65 120.649,-3143.65 122.496,-3154.08 128.598,-3150.65"/>
<text text-anchor="middle" x="143.035" y="-3165" font-family="Courier,monospace" font-size="10.00"> TS </text>
</g>
<!-- A03 -->
<g id="node4" class="node"><title>A03</title>
<polygon fill="#aaffaa" stroke="#aaffaa" points="162.535,-3029.5 22.5353,-3029.5 10.5353,-3017.5 10.5353,-2976.5 22.5353,-2964.5 162.535,-2964.5 174.535,-2976.5 174.535,-3017.5 162.535,-3029.5"/>
<path fill="#aaffaa" stroke="#aaffaa" d="M22.5353,-3029.5C16.5353,-3029.5 10.5353,-3023.5 10.5353,-3017.5"/>
<path fill="#aaffaa" stroke="#aaffaa" d="M10.5353,-2976.5C10.5353,-2970.5 16.5353,-2964.5 22.5353,-2964.5"/>
<path fill="#aaffaa" stroke="#aaffaa" d="M162.535,-2964.5C168.535,-2964.5 174.535,-2970.5 174.535,-2976.5"/>
<path fill="#aaffaa" stroke="#aaffaa" d="M174.535,-3017.5C174.535,-3023.5 168.535,-3029.5 162.535,-3029.5"/>
<polyline fill="none" stroke="black" points="162.535,-3029.5 22.5353,-3029.5 "/>
<path fill="none" stroke="black" d="M22.5353,-3029.5C16.5353,-3029.5 10.5353,-3023.5 10.5353,-3017.5"/>
<polyline fill="none" stroke="black" points="10.5353,-3017.5 10.5353,-2976.5 "/>
<path fill="none" stroke="black" d="M10.5353,-2976.5C10.5353,-2970.5 16.5353,-2964.5 22.5353,-2964.5"/>
<polyline fill="none" stroke="black" points="22.5353,-2964.5 162.535,-2964.5 "/>
<path fill="none" stroke="black" d="M162.535,-2964.5C168.535,-2964.5 174.535,-2970.5 174.535,-2976.5"/>
<polyline fill="none" stroke="black" points="174.535,-2976.5 174.535,-3017.5 "/>
<path fill="none" stroke="black" d="M174.535,-3017.5C174.535,-3023.5 168.535,-3029.5 162.535,-3029.5"/>
<text text-anchor="start" x="80.5353" y="-3011.7" font-family="Helvetica,sans-Serif" font-size="12.00">A03</text>
<text text-anchor="start" x="28.0353" y="-2993.2" font-family="Helvetica,sans-Serif" font-size="12.00">AnalysisThreadSeries</text>
<text text-anchor="start" x="23.0353" y="-2975.2" font-family="Helvetica,sans-Serif" font-size="12.00">AnalysisThreadSeries.h</text>
</g>
<!-- A02&#45;&gt;A03 -->
<g id="edge22" class="edge"><title>A02&#45;&gt;A03</title>
<path fill="none" stroke="black" d="M47.0371,-3078.48C41.9849,-3072.91 37.5745,-3066.72 34.5353,-3060 31.0459,-3052.29 31.9798,-3044.89 35.5415,-3038.04"/>
<polygon fill="black" stroke="black" points="38.5098,-3039.9 41.3233,-3029.69 32.7541,-3035.92 38.5098,-3039.9"/>
<text text-anchor="middle" x="52.5353" y="-3051" font-family="Courier,monospace" font-size="10.00"> CHAN </text>
</g>
<!-- A02&#45;&gt;A03 -->
<g id="edge24" class="edge"><title>A02&#45;&gt;A03</title>
<path fill="none" stroke="black" d="M90.3296,-3078.36C89.9985,-3072.26 89.7098,-3065.94 89.5353,-3060 89.3453,-3053.54 89.4027,-3046.7 89.6034,-3040.01"/>
<polygon fill="black" stroke="black" points="93.1138,-3039.82 90.0218,-3029.69 86.1195,-3039.54 93.1138,-3039.82"/>
<text text-anchor="middle" x="102.035" y="-3051" font-family="Courier,monospace" font-size="10.00"> TS </text>
</g>
<!-- A02&#45;&gt;A03 -->
<g id="edge20" class="edge"><title>A02&#45;&gt;A03</title>
<path fill="none" stroke="black" d="M111.966,-3078.41C114.682,-3072.46 117.05,-3066.18 118.535,-3060 120.169,-3053.2 119.662,-3046.18 117.914,-3039.4"/>
<polygon fill="black" stroke="black" points="121.14,-3038.02 114.573,-3029.7 114.522,-3040.3 121.14,-3038.02"/>
<text text-anchor="middle" x="152.035" y="-3051" font-family="Courier,monospace" font-size="10.00"> ADCOutput </text>
</g>
<!-- A04 -->
<g id="node5" class="node"><title>A04</title>
<polygon fill="#aaffaa" stroke="#aaffaa" points="162.535,-2915.5 22.5353,-2915.5 10.5353,-2903.5 10.5353,-2862.5 22.5353,-2850.5 162.535,-2850.5 174.535,-2862.5 174.535,-2903.5 162.535,-2915.5"/>
<path fill="#aaffaa" stroke="#aaffaa" d="M22.5353,-2915.5C16.5353,-2915.5 10.5353,-2909.5 10.5353,-2903.5"/>
<path fill="#aaffaa" stroke="#aaffaa" d="M10.5353,-2862.5C10.5353,-2856.5 16.5353,-2850.5 22.5353,-2850.5"/>
<path fill="#aaffaa" stroke="#aaffaa" d="M162.535,-2850.5C168.535,-2850.5 174.535,-2856.5 174.535,-2862.5"/>
<path fill="#aaffaa" stroke="#aaffaa" d="M174.535,-2903.5C174.535,-2909.5 168.535,-2915.5 162.535,-2915.5"/>
<polyline fill="none" stroke="black" points="162.535,-2915.5 22.5353,-2915.5 "/>
<path fill="none" stroke="black" d="M22.5353,-2915.5C16.5353,-2915.5 10.5353,-2909.5 10.5353,-2903.5"/>
<polyline fill="none" stroke="black" points="10.5353,-2903.5 10.5353,-2862.5 "/>
<path fill="none" stroke="black" d="M10.5353,-2862.5C10.5353,-2856.5 16.5353,-2850.5 22.5353,-2850.5"/>
<polyline fill="none" stroke="black" points="22.5353,-2850.5 162.535,-2850.5 "/>
<path fill="none" stroke="black" d="M162.535,-2850.5C168.535,-2850.5 174.535,-2856.5 174.535,-2862.5"/>
<polyline fill="none" stroke="black" points="174.535,-2862.5 174.535,-2903.5 "/>
<path fill="none" stroke="black" d="M174.535,-2903.5C174.535,-2909.5 168.535,-2915.5 162.535,-2915.5"/>
<text text-anchor="start" x="80.0353" y="-2897.7" font-family="Helvetica,sans-Serif" font-size="12.00">A04</text>
<text text-anchor="start" x="28.0353" y="-2879.2" font-family="Helvetica,sans-Serif" font-size="12.00">AnalysisThreadSeries</text>
<text text-anchor="start" x="23.0353" y="-2861.2" font-family="Helvetica,sans-Serif" font-size="12.00">AnalysisThreadSeries.h</text>
</g>
<!-- A03&#45;&gt;A04 -->
<g id="edge26" class="edge"><title>A03&#45;&gt;A04</title>
<path fill="none" stroke="black" d="M19.0076,-2964.3C12.909,-2959.01 7.55344,-2952.93 3.53529,-2946 -1.44503,-2937.41 -0.64523,-2929.69 3.77455,-2922.85"/>
<polygon fill="black" stroke="black" points="6.50934,-2925.04 10.4964,-2915.22 1.25823,-2920.41 6.50934,-2925.04"/>
<text text-anchor="middle" x="37.0353" y="-2937" font-family="Courier,monospace" font-size="10.00"> ADCOutput </text>
</g>
<!-- A03&#45;&gt;A04 -->
<g id="edge28" class="edge"><title>A03&#45;&gt;A04</title>
<path fill="none" stroke="black" d="M92.5353,-2964.33C92.5353,-2952.41 92.5353,-2938.73 92.5353,-2926.04"/>
<polygon fill="black" stroke="black" points="96.0354,-2925.67 92.5353,-2915.67 89.0354,-2925.67 96.0354,-2925.67"/>
<text text-anchor="middle" x="110.535" y="-2937" font-family="Courier,monospace" font-size="10.00"> CHAN </text>
</g>
<!-- A03&#45;&gt;A04 -->
<g id="edge30" class="edge"><title>A03&#45;&gt;A04</title>
<path fill="none" stroke="black" d="M124.269,-2964.28C129.832,-2954.89 132.903,-2944.38 129.535,-2934 128.505,-2930.83 127.196,-2927.69 125.688,-2924.61"/>
<polygon fill="black" stroke="black" points="128.598,-2922.65 120.649,-2915.65 122.496,-2926.08 128.598,-2922.65"/>
<text text-anchor="middle" x="143.035" y="-2937" font-family="Courier,monospace" font-size="10.00"> TS </text>
</g>
<!-- A05 -->
<g id="node6" class="node"><title>A05</title>
<polygon fill="#aaffaa" stroke="#aaffaa" points="162.535,-2801.5 22.5353,-2801.5 10.5353,-2789.5 10.5353,-2748.5 22.5353,-2736.5 162.535,-2736.5 174.535,-2748.5 174.535,-2789.5 162.535,-2801.5"/>
<path fill="#aaffaa" stroke="#aaffaa" d="M22.5353,-2801.5C16.5353,-2801.5 10.5353,-2795.5 10.5353,-2789.5"/>
<path fill="#aaffaa" stroke="#aaffaa" d="M10.5353,-2748.5C10.5353,-2742.5 16.5353,-2736.5 22.5353,-2736.5"/>
<path fill="#aaffaa" stroke="#aaffaa" d="M162.535,-2736.5C168.535,-2736.5 174.535,-2742.5 174.535,-2748.5"/>
<path fill="#aaffaa" stroke="#aaffaa" d="M174.535,-2789.5C174.535,-2795.5 168.535,-2801.5 162.535,-2801.5"/>
<polyline fill="none" stroke="black" points="162.535,-2801.5 22.5353,-2801.5 "/>
<path fill="none" stroke="black" d="M22.5353,-2801.5C16.5353,-2801.5 10.5353,-2795.5 10.5353,-2789.5"/>
<polyline fill="none" stroke="black" points="10.5353,-2789.5 10.5353,-2748.5 "/>
<path fill="none" stroke="black" d="M10.5353,-2748.5C10.5353,-2742.5 16.5353,-2736.5 22.5353,-2736.5"/>
<polyline fill="none" stroke="black" points="22.5353,-2736.5 162.535,-2736.5 "/>
<path fill="none" stroke="black" d="M162.535,-2736.5C168.535,-2736.5 174.535,-2742.5 174.535,-2748.5"/>
<polyline fill="none" stroke="black" points="174.535,-2748.5 174.535,-2789.5 "/>
<path fill="none" stroke="black" d="M174.535,-2789.5C174.535,-2795.5 168.535,-2801.5 162.535,-2801.5"/>
<text text-anchor="start" x="80.5353" y="-2783.7" font-family="Helvetica,sans-Serif" font-size="12.00">A05</text>
<text text-anchor="start" x="28.0353" y="-2765.2" font-family="Helvetica,sans-Serif" font-size="12.00">AnalysisThreadSeries</text>
<text text-anchor="start" x="23.0353" y="-2747.2" font-family="Helvetica,sans-Serif" font-size="12.00">AnalysisThreadSeries.h</text>
</g>
<!-- A04&#45;&gt;A05 -->
<g id="edge32" class="edge"><title>A04&#45;&gt;A05</title>
<path fill="none" stroke="black" d="M19.0076,-2850.3C12.909,-2845.01 7.55344,-2838.93 3.53529,-2832 -1.44503,-2823.41 -0.64523,-2815.69 3.77455,-2808.85"/>
<polygon fill="black" stroke="black" points="6.50934,-2811.04 10.4964,-2801.22 1.25823,-2806.41 6.50934,-2811.04"/>
<text text-anchor="middle" x="37.0353" y="-2823" font-family="Courier,monospace" font-size="10.00"> ADCOutput </text>
</g>
<!-- A04&#45;&gt;A05 -->
<g id="edge34" class="edge"><title>A04&#45;&gt;A05</title>
<path fill="none" stroke="black" d="M92.5353,-2850.33C92.5353,-2838.41 92.5353,-2824.73 92.5353,-2812.04"/>
<polygon fill="black" stroke="black" points="96.0354,-2811.67 92.5353,-2801.67 89.0354,-2811.67 96.0354,-2811.67"/>
<text text-anchor="middle" x="110.535" y="-2823" font-family="Courier,monospace" font-size="10.00"> CHAN </text>
</g>
<!-- A04&#45;&gt;A05 -->
<g id="edge36" class="edge"><title>A04&#45;&gt;A05</title>
<path fill="none" stroke="black" d="M124.269,-2850.28C129.832,-2840.89 132.903,-2830.38 129.535,-2820 128.505,-2816.83 127.196,-2813.69 125.688,-2810.61"/>
<polygon fill="black" stroke="black" points="128.598,-2808.65 120.649,-2801.65 122.496,-2812.08 128.598,-2808.65"/>
<text text-anchor="middle" x="143.035" y="-2823" font-family="Courier,monospace" font-size="10.00"> TS </text>
</g>
<!-- A06 -->
<g id="node7" class="node"><title>A06</title>
<polygon fill="#aaffaa" stroke="#aaffaa" points="162.535,-2687.5 22.5353,-2687.5 10.5353,-2675.5 10.5353,-2634.5 22.5353,-2622.5 162.535,-2622.5 174.535,-2634.5 174.535,-2675.5 162.535,-2687.5"/>
<path fill="#aaffaa" stroke="#aaffaa" d="M22.5353,-2687.5C16.5353,-2687.5 10.5353,-2681.5 10.5353,-2675.5"/>
<path fill="#aaffaa" stroke="#aaffaa" d="M10.5353,-2634.5C10.5353,-2628.5 16.5353,-2622.5 22.5353,-2622.5"/>
<path fill="#aaffaa" stroke="#aaffaa" d="M162.535,-2622.5C168.535,-2622.5 174.535,-2628.5 174.535,-2634.5"/>
<path fill="#aaffaa" stroke="#aaffaa" d="M174.535,-2675.5C174.535,-2681.5 168.535,-2687.5 162.535,-2687.5"/>
<polyline fill="none" stroke="black" points="162.535,-2687.5 22.5353,-2687.5 "/>
<path fill="none" stroke="black" d="M22.5353,-2687.5C16.5353,-2687.5 10.5353,-2681.5 10.5353,-2675.5"/>
<polyline fill="none" stroke="black" points="10.5353,-2675.5 10.5353,-2634.5 "/>
<path fill="none" stroke="black" d="M10.5353,-2634.5C10.5353,-2628.5 16.5353,-2622.5 22.5353,-2622.5"/>
<polyline fill="none" stroke="black" points="22.5353,-2622.5 162.535,-2622.5 "/>
<path fill="none" stroke="black" d="M162.535,-2622.5C168.535,-2622.5 174.535,-2628.5 174.535,-2634.5"/>
<polyline fill="none" stroke="black" points="174.535,-2634.5 174.535,-2675.5 "/>
<path fill="none" stroke="black" d="M174.535,-2675.5C174.535,-2681.5 168.535,-2687.5 162.535,-2687.5"/>
<text text-anchor="start" x="80.0353" y="-2669.7" font-family="Helvetica,sans-Serif" font-size="12.00">A06</text>
<text text-anchor="start" x="28.0353" y="-2651.2" font-family="Helvetica,sans-Serif" font-size="12.00">AnalysisThreadSeries</text>
<text text-anchor="start" x="23.0353" y="-2633.2" font-family="Helvetica,sans-Serif" font-size="12.00">AnalysisThreadSeries.h</text>
</g>
<!-- A05&#45;&gt;A06 -->
<g id="edge38" class="edge"><title>A05&#45;&gt;A06</title>
<path fill="none" stroke="black" d="M19.0076,-2736.3C12.909,-2731.01 7.55344,-2724.93 3.53529,-2718 -1.44503,-2709.41 -0.64523,-2701.69 3.77455,-2694.85"/>
<polygon fill="black" stroke="black" points="6.50934,-2697.04 10.4964,-2687.22 1.25823,-2692.41 6.50934,-2697.04"/>
<text text-anchor="middle" x="37.0353" y="-2709" font-family="Courier,monospace" font-size="10.00"> ADCOutput </text>
</g>
<!-- A05&#45;&gt;A06 -->
<g id="edge40" class="edge"><title>A05&#45;&gt;A06</title>
<path fill="none" stroke="black" d="M92.5353,-2736.33C92.5353,-2724.41 92.5353,-2710.73 92.5353,-2698.04"/>
<polygon fill="black" stroke="black" points="96.0354,-2697.67 92.5353,-2687.67 89.0354,-2697.67 96.0354,-2697.67"/>
<text text-anchor="middle" x="110.535" y="-2709" font-family="Courier,monospace" font-size="10.00"> CHAN </text>
</g>
<!-- A05&#45;&gt;A06 -->
<g id="edge42" class="edge"><title>A05&#45;&gt;A06</title>
<path fill="none" stroke="black" d="M124.269,-2736.28C129.832,-2726.89 132.903,-2716.38 129.535,-2706 128.505,-2702.83 127.196,-2699.69 125.688,-2696.61"/>
<polygon fill="black" stroke="black" points="128.598,-2694.65 120.649,-2687.65 122.496,-2698.08 128.598,-2694.65"/>
<text text-anchor="middle" x="143.035" y="-2709" font-family="Courier,monospace" font-size="10.00"> TS </text>
</g>
<!-- A07 -->
<g id="node8" class="node"><title>A07</title>
<polygon fill="#aaffaa" stroke="#aaffaa" points="162.535,-2573.5 22.5353,-2573.5 10.5353,-2561.5 10.5353,-2520.5 22.5353,-2508.5 162.535,-2508.5 174.535,-2520.5 174.535,-2561.5 162.535,-2573.5"/>
<path fill="#aaffaa" stroke="#aaffaa" d="M22.5353,-2573.5C16.5353,-2573.5 10.5353,-2567.5 10.5353,-2561.5"/>
<path fill="#aaffaa" stroke="#aaffaa" d="M10.5353,-2520.5C10.5353,-2514.5 16.5353,-2508.5 22.5353,-2508.5"/>
<path fill="#aaffaa" stroke="#aaffaa" d="M162.535,-2508.5C168.535,-2508.5 174.535,-2514.5 174.535,-2520.5"/>
<path fill="#aaffaa" stroke="#aaffaa" d="M174.535,-2561.5C174.535,-2567.5 168.535,-2573.5 162.535,-2573.5"/>
<polyline fill="none" stroke="black" points="162.535,-2573.5 22.5353,-2573.5 "/>
<path fill="none" stroke="black" d="M22.5353,-2573.5C16.5353,-2573.5 10.5353,-2567.5 10.5353,-2561.5"/>
<polyline fill="none" stroke="black" points="10.5353,-2561.5 10.5353,-2520.5 "/>
<path fill="none" stroke="black" d="M10.5353,-2520.5C10.5353,-2514.5 16.5353,-2508.5 22.5353,-2508.5"/>
<polyline fill="none" stroke="black" points="22.5353,-2508.5 162.535,-2508.5 "/>
<path fill="none" stroke="black" d="M162.535,-2508.5C168.535,-2508.5 174.535,-2514.5 174.535,-2520.5"/>
<polyline fill="none" stroke="black" points="174.535,-2520.5 174.535,-2561.5 "/>
<path fill="none" stroke="black" d="M174.535,-2561.5C174.535,-2567.5 168.535,-2573.5 162.535,-2573.5"/>
<text text-anchor="start" x="80.0353" y="-2555.7" font-family="Helvetica,sans-Serif" font-size="12.00">A07</text>
<text text-anchor="start" x="28.0353" y="-2537.2" font-family="Helvetica,sans-Serif" font-size="12.00">AnalysisThreadSeries</text>
<text text-anchor="start" x="23.0353" y="-2519.2" font-family="Helvetica,sans-Serif" font-size="12.00">AnalysisThreadSeries.h</text>
</g>
<!-- A06&#45;&gt;A07 -->
<g id="edge44" class="edge"><title>A06&#45;&gt;A07</title>
<path fill="none" stroke="black" d="M19.0076,-2622.3C12.909,-2617.01 7.55344,-2610.93 3.53529,-2604 -1.44503,-2595.41 -0.64523,-2587.69 3.77455,-2580.85"/>
<polygon fill="black" stroke="black" points="6.50934,-2583.04 10.4964,-2573.22 1.25823,-2578.41 6.50934,-2583.04"/>
<text text-anchor="middle" x="37.0353" y="-2595" font-family="Courier,monospace" font-size="10.00"> ADCOutput </text>
</g>
<!-- A06&#45;&gt;A07 -->
<g id="edge46" class="edge"><title>A06&#45;&gt;A07</title>
<path fill="none" stroke="black" d="M92.5353,-2622.33C92.5353,-2610.41 92.5353,-2596.73 92.5353,-2584.04"/>
<polygon fill="black" stroke="black" points="96.0354,-2583.67 92.5353,-2573.67 89.0354,-2583.67 96.0354,-2583.67"/>
<text text-anchor="middle" x="110.535" y="-2595" font-family="Courier,monospace" font-size="10.00"> CHAN </text>
</g>
<!-- A06&#45;&gt;A07 -->
<g id="edge48" class="edge"><title>A06&#45;&gt;A07</title>
<path fill="none" stroke="black" d="M124.269,-2622.28C129.832,-2612.89 132.903,-2602.38 129.535,-2592 128.505,-2588.83 127.196,-2585.69 125.688,-2582.61"/>
<polygon fill="black" stroke="black" points="128.598,-2580.65 120.649,-2573.65 122.496,-2584.08 128.598,-2580.65"/>
<text text-anchor="middle" x="143.035" y="-2595" font-family="Courier,monospace" font-size="10.00"> TS </text>
</g>
<!-- A08 -->
<g id="node9" class="node"><title>A08</title>
<polygon fill="#aaffaa" stroke="#aaffaa" points="162.535,-2459.5 22.5353,-2459.5 10.5353,-2447.5 10.5353,-2406.5 22.5353,-2394.5 162.535,-2394.5 174.535,-2406.5 174.535,-2447.5 162.535,-2459.5"/>
<path fill="#aaffaa" stroke="#aaffaa" d="M22.5353,-2459.5C16.5353,-2459.5 10.5353,-2453.5 10.5353,-2447.5"/>
<path fill="#aaffaa" stroke="#aaffaa" d="M10.5353,-2406.5C10.5353,-2400.5 16.5353,-2394.5 22.5353,-2394.5"/>
<path fill="#aaffaa" stroke="#aaffaa" d="M162.535,-2394.5C168.535,-2394.5 174.535,-2400.5 174.535,-2406.5"/>
<path fill="#aaffaa" stroke="#aaffaa" d="M174.535,-2447.5C174.535,-2453.5 168.535,-2459.5 162.535,-2459.5"/>
<polyline fill="none" stroke="black" points="162.535,-2459.5 22.5353,-2459.5 "/>
<path fill="none" stroke="black" d="M22.5353,-2459.5C16.5353,-2459.5 10.5353,-2453.5 10.5353,-2447.5"/>
<polyline fill="none" stroke="black" points="10.5353,-2447.5 10.5353,-2406.5 "/>
<path fill="none" stroke="black" d="M10.5353,-2406.5C10.5353,-2400.5 16.5353,-2394.5 22.5353,-2394.5"/>
<polyline fill="none" stroke="black" points="22.5353,-2394.5 162.535,-2394.5 "/>
<path fill="none" stroke="black" d="M162.535,-2394.5C168.535,-2394.5 174.535,-2400.5 174.535,-2406.5"/>
<polyline fill="none" stroke="black" points="174.535,-2406.5 174.535,-2447.5 "/>
<path fill="none" stroke="black" d="M174.535,-2447.5C174.535,-2453.5 168.535,-2459.5 162.535,-2459.5"/>
<text text-anchor="start" x="80.0353" y="-2441.7" font-family="Helvetica,sans-Serif" font-size="12.00">A08</text>
<text text-anchor="start" x="28.0353" y="-2423.2" font-family="Helvetica,sans-Serif" font-size="12.00">AnalysisThreadSeries</text>
<text text-anchor="start" x="23.0353" y="-2405.2" font-family="Helvetica,sans-Serif" font-size="12.00">AnalysisThreadSeries.h</text>
</g>
<!-- A07&#45;&gt;A08 -->
<g id="edge50" class="edge"><title>A07&#45;&gt;A08</title>
<path fill="none" stroke="black" d="M19.0076,-2508.3C12.909,-2503.01 7.55344,-2496.93 3.53529,-2490 -1.44503,-2481.41 -0.64523,-2473.69 3.77455,-2466.85"/>
<polygon fill="black" stroke="black" points="6.50934,-2469.04 10.4964,-2459.22 1.25823,-2464.41 6.50934,-2469.04"/>
<text text-anchor="middle" x="37.0353" y="-2481" font-family="Courier,monospace" font-size="10.00"> ADCOutput </text>
</g>
<!-- A07&#45;&gt;A08 -->
<g id="edge52" class="edge"><title>A07&#45;&gt;A08</title>
<path fill="none" stroke="black" d="M92.5353,-2508.33C92.5353,-2496.41 92.5353,-2482.73 92.5353,-2470.04"/>
<polygon fill="black" stroke="black" points="96.0354,-2469.67 92.5353,-2459.67 89.0354,-2469.67 96.0354,-2469.67"/>
<text text-anchor="middle" x="110.535" y="-2481" font-family="Courier,monospace" font-size="10.00"> CHAN </text>
</g>
<!-- A07&#45;&gt;A08 -->
<g id="edge54" class="edge"><title>A07&#45;&gt;A08</title>
<path fill="none" stroke="black" d="M124.269,-2508.28C129.832,-2498.89 132.903,-2488.38 129.535,-2478 128.505,-2474.83 127.196,-2471.69 125.688,-2468.61"/>
<polygon fill="black" stroke="black" points="128.598,-2466.65 120.649,-2459.65 122.496,-2470.08 128.598,-2466.65"/>
<text text-anchor="middle" x="143.035" y="-2481" font-family="Courier,monospace" font-size="10.00"> TS </text>
</g>
<!-- A09 -->
<g id="node10" class="node"><title>A09</title>
<polygon fill="#aaffaa" stroke="#aaffaa" points="162.535,-2345.5 22.5353,-2345.5 10.5353,-2333.5 10.5353,-2292.5 22.5353,-2280.5 162.535,-2280.5 174.535,-2292.5 174.535,-2333.5 162.535,-2345.5"/>
<path fill="#aaffaa" stroke="#aaffaa" d="M22.5353,-2345.5C16.5353,-2345.5 10.5353,-2339.5 10.5353,-2333.5"/>
<path fill="#aaffaa" stroke="#aaffaa" d="M10.5353,-2292.5C10.5353,-2286.5 16.5353,-2280.5 22.5353,-2280.5"/>
<path fill="#aaffaa" stroke="#aaffaa" d="M162.535,-2280.5C168.535,-2280.5 174.535,-2286.5 174.535,-2292.5"/>
<path fill="#aaffaa" stroke="#aaffaa" d="M174.535,-2333.5C174.535,-2339.5 168.535,-2345.5 162.535,-2345.5"/>
<polyline fill="none" stroke="black" points="162.535,-2345.5 22.5353,-2345.5 "/>
<path fill="none" stroke="black" d="M22.5353,-2345.5C16.5353,-2345.5 10.5353,-2339.5 10.5353,-2333.5"/>
<polyline fill="none" stroke="black" points="10.5353,-2333.5 10.5353,-2292.5 "/>
<path fill="none" stroke="black" d="M10.5353,-2292.5C10.5353,-2286.5 16.5353,-2280.5 22.5353,-2280.5"/>
<polyline fill="none" stroke="black" points="22.5353,-2280.5 162.535,-2280.5 "/>
<path fill="none" stroke="black" d="M162.535,-2280.5C168.535,-2280.5 174.535,-2286.5 174.535,-2292.5"/>
<polyline fill="none" stroke="black" points="174.535,-2292.5 174.535,-2333.5 "/>
<path fill="none" stroke="black" d="M174.535,-2333.5C174.535,-2339.5 168.535,-2345.5 162.535,-2345.5"/>
<text text-anchor="start" x="80.0353" y="-2327.7" font-family="Helvetica,sans-Serif" font-size="12.00">A09</text>
<text text-anchor="start" x="28.0353" y="-2309.2" font-family="Helvetica,sans-Serif" font-size="12.00">AnalysisThreadSeries</text>
<text text-anchor="start" x="23.0353" y="-2291.2" font-family="Helvetica,sans-Serif" font-size="12.00">AnalysisThreadSeries.h</text>
</g>
<!-- A08&#45;&gt;A09 -->
<g id="edge56" class="edge"><title>A08&#45;&gt;A09</title>
<path fill="none" stroke="black" d="M19.0076,-2394.3C12.909,-2389.01 7.55344,-2382.93 3.53529,-2376 -1.44503,-2367.41 -0.64523,-2359.69 3.77455,-2352.85"/>
<polygon fill="black" stroke="black" points="6.50934,-2355.04 10.4964,-2345.22 1.25823,-2350.41 6.50934,-2355.04"/>
<text text-anchor="middle" x="37.0353" y="-2367" font-family="Courier,monospace" font-size="10.00"> ADCOutput </text>
</g>
<!-- A08&#45;&gt;A09 -->
<g id="edge58" class="edge"><title>A08&#45;&gt;A09</title>
<path fill="none" stroke="black" d="M92.5353,-2394.33C92.5353,-2382.41 92.5353,-2368.73 92.5353,-2356.04"/>
<polygon fill="black" stroke="black" points="96.0354,-2355.67 92.5353,-2345.67 89.0354,-2355.67 96.0354,-2355.67"/>
<text text-anchor="middle" x="110.535" y="-2367" font-family="Courier,monospace" font-size="10.00"> CHAN </text>
</g>
<!-- A08&#45;&gt;A09 -->
<g id="edge60" class="edge"><title>A08&#45;&gt;A09</title>
<path fill="none" stroke="black" d="M124.269,-2394.28C129.832,-2384.89 132.903,-2374.38 129.535,-2364 128.505,-2360.83 127.196,-2357.69 125.688,-2354.61"/>
<polygon fill="black" stroke="black" points="128.598,-2352.65 120.649,-2345.65 122.496,-2356.08 128.598,-2352.65"/>
<text text-anchor="middle" x="143.035" y="-2367" font-family="Courier,monospace" font-size="10.00"> TS </text>
</g>
<!-- A10 -->
<g id="node11" class="node"><title>A10</title>
<polygon fill="#aaffaa" stroke="#aaffaa" points="162.535,-2231.5 22.5353,-2231.5 10.5353,-2219.5 10.5353,-2178.5 22.5353,-2166.5 162.535,-2166.5 174.535,-2178.5 174.535,-2219.5 162.535,-2231.5"/>
<path fill="#aaffaa" stroke="#aaffaa" d="M22.5353,-2231.5C16.5353,-2231.5 10.5353,-2225.5 10.5353,-2219.5"/>
<path fill="#aaffaa" stroke="#aaffaa" d="M10.5353,-2178.5C10.5353,-2172.5 16.5353,-2166.5 22.5353,-2166.5"/>
<path fill="#aaffaa" stroke="#aaffaa" d="M162.535,-2166.5C168.535,-2166.5 174.535,-2172.5 174.535,-2178.5"/>
<path fill="#aaffaa" stroke="#aaffaa" d="M174.535,-2219.5C174.535,-2225.5 168.535,-2231.5 162.535,-2231.5"/>
<polyline fill="none" stroke="black" points="162.535,-2231.5 22.5353,-2231.5 "/>
<path fill="none" stroke="black" d="M22.5353,-2231.5C16.5353,-2231.5 10.5353,-2225.5 10.5353,-2219.5"/>
<polyline fill="none" stroke="black" points="10.5353,-2219.5 10.5353,-2178.5 "/>
<path fill="none" stroke="black" d="M10.5353,-2178.5C10.5353,-2172.5 16.5353,-2166.5 22.5353,-2166.5"/>
<polyline fill="none" stroke="black" points="22.5353,-2166.5 162.535,-2166.5 "/>
<path fill="none" stroke="black" d="M162.535,-2166.5C168.535,-2166.5 174.535,-2172.5 174.535,-2178.5"/>
<polyline fill="none" stroke="black" points="174.535,-2178.5 174.535,-2219.5 "/>
<path fill="none" stroke="black" d="M174.535,-2219.5C174.535,-2225.5 168.535,-2231.5 162.535,-2231.5"/>
<text text-anchor="start" x="80.5353" y="-2213.7" font-family="Helvetica,sans-Serif" font-size="12.00">A10</text>
<text text-anchor="start" x="28.0353" y="-2195.2" font-family="Helvetica,sans-Serif" font-size="12.00">AnalysisThreadSeries</text>
<text text-anchor="start" x="23.0353" y="-2177.2" font-family="Helvetica,sans-Serif" font-size="12.00">AnalysisThreadSeries.h</text>
</g>
<!-- A09&#45;&gt;A10 -->
<g id="edge62" class="edge"><title>A09&#45;&gt;A10</title>
<path fill="none" stroke="black" d="M19.0076,-2280.3C12.909,-2275.01 7.55344,-2268.93 3.53529,-2262 -1.44503,-2253.41 -0.64523,-2245.69 3.77455,-2238.85"/>
<polygon fill="black" stroke="black" points="6.50934,-2241.04 10.4964,-2231.22 1.25823,-2236.41 6.50934,-2241.04"/>
<text text-anchor="middle" x="37.0353" y="-2253" font-family="Courier,monospace" font-size="10.00"> ADCOutput </text>
</g>
<!-- A09&#45;&gt;A10 -->
<g id="edge64" class="edge"><title>A09&#45;&gt;A10</title>
<path fill="none" stroke="black" d="M92.5353,-2280.33C92.5353,-2268.41 92.5353,-2254.73 92.5353,-2242.04"/>
<polygon fill="black" stroke="black" points="96.0354,-2241.67 92.5353,-2231.67 89.0354,-2241.67 96.0354,-2241.67"/>
<text text-anchor="middle" x="110.535" y="-2253" font-family="Courier,monospace" font-size="10.00"> CHAN </text>
</g>
<!-- A09&#45;&gt;A10 -->
<g id="edge66" class="edge"><title>A09&#45;&gt;A10</title>
<path fill="none" stroke="black" d="M124.269,-2280.28C129.832,-2270.89 132.903,-2260.38 129.535,-2250 128.505,-2246.83 127.196,-2243.69 125.688,-2240.61"/>
<polygon fill="black" stroke="black" points="128.598,-2238.65 120.649,-2231.65 122.496,-2242.08 128.598,-2238.65"/>
<text text-anchor="middle" x="143.035" y="-2253" font-family="Courier,monospace" font-size="10.00"> TS </text>
</g>
<!-- A11 -->
<g id="node12" class="node"><title>A11</title>
<polygon fill="#aaffaa" stroke="#aaffaa" points="162.535,-2117.5 22.5353,-2117.5 10.5353,-2105.5 10.5353,-2064.5 22.5353,-2052.5 162.535,-2052.5 174.535,-2064.5 174.535,-2105.5 162.535,-2117.5"/>
<path fill="#aaffaa" stroke="#aaffaa" d="M22.5353,-2117.5C16.5353,-2117.5 10.5353,-2111.5 10.5353,-2105.5"/>
<path fill="#aaffaa" stroke="#aaffaa" d="M10.5353,-2064.5C10.5353,-2058.5 16.5353,-2052.5 22.5353,-2052.5"/>
<path fill="#aaffaa" stroke="#aaffaa" d="M162.535,-2052.5C168.535,-2052.5 174.535,-2058.5 174.535,-2064.5"/>
<path fill="#aaffaa" stroke="#aaffaa" d="M174.535,-2105.5C174.535,-2111.5 168.535,-2117.5 162.535,-2117.5"/>
<polyline fill="none" stroke="black" points="162.535,-2117.5 22.5353,-2117.5 "/>
<path fill="none" stroke="black" d="M22.5353,-2117.5C16.5353,-2117.5 10.5353,-2111.5 10.5353,-2105.5"/>
<polyline fill="none" stroke="black" points="10.5353,-2105.5 10.5353,-2064.5 "/>
<path fill="none" stroke="black" d="M10.5353,-2064.5C10.5353,-2058.5 16.5353,-2052.5 22.5353,-2052.5"/>
<polyline fill="none" stroke="black" points="22.5353,-2052.5 162.535,-2052.5 "/>
<path fill="none" stroke="black" d="M162.535,-2052.5C168.535,-2052.5 174.535,-2058.5 174.535,-2064.5"/>
<polyline fill="none" stroke="black" points="174.535,-2064.5 174.535,-2105.5 "/>
<path fill="none" stroke="black" d="M174.535,-2105.5C174.535,-2111.5 168.535,-2117.5 162.535,-2117.5"/>
<text text-anchor="start" x="81.0353" y="-2099.7" font-family="Helvetica,sans-Serif" font-size="12.00">A11</text>
<text text-anchor="start" x="28.0353" y="-2081.2" font-family="Helvetica,sans-Serif" font-size="12.00">AnalysisThreadSeries</text>
<text text-anchor="start" x="23.0353" y="-2063.2" font-family="Helvetica,sans-Serif" font-size="12.00">AnalysisThreadSeries.h</text>
</g>
<!-- A10&#45;&gt;A11 -->
<g id="edge68" class="edge"><title>A10&#45;&gt;A11</title>
<path fill="none" stroke="black" d="M19.0076,-2166.3C12.909,-2161.01 7.55344,-2154.93 3.53529,-2148 -1.44503,-2139.41 -0.64523,-2131.69 3.77455,-2124.85"/>
<polygon fill="black" stroke="black" points="6.50934,-2127.04 10.4964,-2117.22 1.25823,-2122.41 6.50934,-2127.04"/>
<text text-anchor="middle" x="37.0353" y="-2139" font-family="Courier,monospace" font-size="10.00"> ADCOutput </text>
</g>
<!-- A10&#45;&gt;A11 -->
<g id="edge70" class="edge"><title>A10&#45;&gt;A11</title>
<path fill="none" stroke="black" d="M92.5353,-2166.33C92.5353,-2154.41 92.5353,-2140.73 92.5353,-2128.04"/>
<polygon fill="black" stroke="black" points="96.0354,-2127.67 92.5353,-2117.67 89.0354,-2127.67 96.0354,-2127.67"/>
<text text-anchor="middle" x="110.535" y="-2139" font-family="Courier,monospace" font-size="10.00"> CHAN </text>
</g>
<!-- A10&#45;&gt;A11 -->
<g id="edge72" class="edge"><title>A10&#45;&gt;A11</title>
<path fill="none" stroke="black" d="M124.269,-2166.28C129.832,-2156.89 132.903,-2146.38 129.535,-2136 128.505,-2132.83 127.196,-2129.69 125.688,-2126.61"/>
<polygon fill="black" stroke="black" points="128.598,-2124.65 120.649,-2117.65 122.496,-2128.08 128.598,-2124.65"/>
<text text-anchor="middle" x="143.035" y="-2139" font-family="Courier,monospace" font-size="10.00"> TS </text>
</g>
<!-- A12 -->
<g id="node13" class="node"><title>A12</title>
<polygon fill="#aaffaa" stroke="#aaffaa" points="162.535,-2003.5 22.5353,-2003.5 10.5353,-1991.5 10.5353,-1950.5 22.5353,-1938.5 162.535,-1938.5 174.535,-1950.5 174.535,-1991.5 162.535,-2003.5"/>
<path fill="#aaffaa" stroke="#aaffaa" d="M22.5353,-2003.5C16.5353,-2003.5 10.5353,-1997.5 10.5353,-1991.5"/>
<path fill="#aaffaa" stroke="#aaffaa" d="M10.5353,-1950.5C10.5353,-1944.5 16.5353,-1938.5 22.5353,-1938.5"/>
<path fill="#aaffaa" stroke="#aaffaa" d="M162.535,-1938.5C168.535,-1938.5 174.535,-1944.5 174.535,-1950.5"/>
<path fill="#aaffaa" stroke="#aaffaa" d="M174.535,-1991.5C174.535,-1997.5 168.535,-2003.5 162.535,-2003.5"/>
<polyline fill="none" stroke="black" points="162.535,-2003.5 22.5353,-2003.5 "/>
<path fill="none" stroke="black" d="M22.5353,-2003.5C16.5353,-2003.5 10.5353,-1997.5 10.5353,-1991.5"/>
<polyline fill="none" stroke="black" points="10.5353,-1991.5 10.5353,-1950.5 "/>
<path fill="none" stroke="black" d="M10.5353,-1950.5C10.5353,-1944.5 16.5353,-1938.5 22.5353,-1938.5"/>
<polyline fill="none" stroke="black" points="22.5353,-1938.5 162.535,-1938.5 "/>
<path fill="none" stroke="black" d="M162.535,-1938.5C168.535,-1938.5 174.535,-1944.5 174.535,-1950.5"/>
<polyline fill="none" stroke="black" points="174.535,-1950.5 174.535,-1991.5 "/>
<path fill="none" stroke="black" d="M174.535,-1991.5C174.535,-1997.5 168.535,-2003.5 162.535,-2003.5"/>
<text text-anchor="start" x="81.0353" y="-1985.7" font-family="Helvetica,sans-Serif" font-size="12.00">A12</text>
<text text-anchor="start" x="28.0353" y="-1967.2" font-family="Helvetica,sans-Serif" font-size="12.00">AnalysisThreadSeries</text>
<text text-anchor="start" x="23.0353" y="-1949.2" font-family="Helvetica,sans-Serif" font-size="12.00">AnalysisThreadSeries.h</text>
</g>
<!-- A11&#45;&gt;A12 -->
<g id="edge74" class="edge"><title>A11&#45;&gt;A12</title>
<path fill="none" stroke="black" d="M19.0076,-2052.3C12.909,-2047.01 7.55344,-2040.93 3.53529,-2034 -1.44503,-2025.41 -0.64523,-2017.69 3.77455,-2010.85"/>
<polygon fill="black" stroke="black" points="6.50934,-2013.04 10.4964,-2003.22 1.25823,-2008.41 6.50934,-2013.04"/>
<text text-anchor="middle" x="37.0353" y="-2025" font-family="Courier,monospace" font-size="10.00"> ADCOutput </text>
</g>
<!-- A11&#45;&gt;A12 -->
<g id="edge76" class="edge"><title>A11&#45;&gt;A12</title>
<path fill="none" stroke="black" d="M92.5353,-2052.33C92.5353,-2040.41 92.5353,-2026.73 92.5353,-2014.04"/>
<polygon fill="black" stroke="black" points="96.0354,-2013.67 92.5353,-2003.67 89.0354,-2013.67 96.0354,-2013.67"/>
<text text-anchor="middle" x="110.535" y="-2025" font-family="Courier,monospace" font-size="10.00"> CHAN </text>
</g>
<!-- A11&#45;&gt;A12 -->
<g id="edge78" class="edge"><title>A11&#45;&gt;A12</title>
<path fill="none" stroke="black" d="M124.269,-2052.28C129.832,-2042.89 132.903,-2032.38 129.535,-2022 128.505,-2018.83 127.196,-2015.69 125.688,-2012.61"/>
<polygon fill="black" stroke="black" points="128.598,-2010.65 120.649,-2003.65 122.496,-2014.08 128.598,-2010.65"/>
<text text-anchor="middle" x="143.035" y="-2025" font-family="Courier,monospace" font-size="10.00"> TS </text>
</g>
<!-- A13 -->
<g id="node14" class="node"><title>A13</title>
<polygon fill="#aaffaa" stroke="#aaffaa" points="162.535,-1889.5 22.5353,-1889.5 10.5353,-1877.5 10.5353,-1836.5 22.5353,-1824.5 162.535,-1824.5 174.535,-1836.5 174.535,-1877.5 162.535,-1889.5"/>
<path fill="#aaffaa" stroke="#aaffaa" d="M22.5353,-1889.5C16.5353,-1889.5 10.5353,-1883.5 10.5353,-1877.5"/>
<path fill="#aaffaa" stroke="#aaffaa" d="M10.5353,-1836.5C10.5353,-1830.5 16.5353,-1824.5 22.5353,-1824.5"/>
<path fill="#aaffaa" stroke="#aaffaa" d="M162.535,-1824.5C168.535,-1824.5 174.535,-1830.5 174.535,-1836.5"/>
<path fill="#aaffaa" stroke="#aaffaa" d="M174.535,-1877.5C174.535,-1883.5 168.535,-1889.5 162.535,-1889.5"/>
<polyline fill="none" stroke="black" points="162.535,-1889.5 22.5353,-1889.5 "/>
<path fill="none" stroke="black" d="M22.5353,-1889.5C16.5353,-1889.5 10.5353,-1883.5 10.5353,-1877.5"/>
<polyline fill="none" stroke="black" points="10.5353,-1877.5 10.5353,-1836.5 "/>
<path fill="none" stroke="black" d="M10.5353,-1836.5C10.5353,-1830.5 16.5353,-1824.5 22.5353,-1824.5"/>
<polyline fill="none" stroke="black" points="22.5353,-1824.5 162.535,-1824.5 "/>
<path fill="none" stroke="black" d="M162.535,-1824.5C168.535,-1824.5 174.535,-1830.5 174.535,-1836.5"/>
<polyline fill="none" stroke="black" points="174.535,-1836.5 174.535,-1877.5 "/>
<path fill="none" stroke="black" d="M174.535,-1877.5C174.535,-1883.5 168.535,-1889.5 162.535,-1889.5"/>
<text text-anchor="start" x="81.0353" y="-1871.7" font-family="Helvetica,sans-Serif" font-size="12.00">A13</text>
<text text-anchor="start" x="28.0353" y="-1853.2" font-family="Helvetica,sans-Serif" font-size="12.00">AnalysisThreadSeries</text>
<text text-anchor="start" x="23.0353" y="-1835.2" font-family="Helvetica,sans-Serif" font-size="12.00">AnalysisThreadSeries.h</text>
</g>
<!-- A12&#45;&gt;A13 -->
<g id="edge80" class="edge"><title>A12&#45;&gt;A13</title>
<path fill="none" stroke="black" d="M19.0076,-1938.3C12.909,-1933.01 7.55344,-1926.93 3.53529,-1920 -1.44503,-1911.41 -0.64523,-1903.69 3.77455,-1896.85"/>
<polygon fill="black" stroke="black" points="6.50934,-1899.04 10.4964,-1889.22 1.25823,-1894.41 6.50934,-1899.04"/>
<text text-anchor="middle" x="37.0353" y="-1911" font-family="Courier,monospace" font-size="10.00"> ADCOutput </text>
</g>
<!-- A12&#45;&gt;A13 -->
<g id="edge82" class="edge"><title>A12&#45;&gt;A13</title>
<path fill="none" stroke="black" d="M92.5353,-1938.33C92.5353,-1926.41 92.5353,-1912.73 92.5353,-1900.04"/>
<polygon fill="black" stroke="black" points="96.0354,-1899.67 92.5353,-1889.67 89.0354,-1899.67 96.0354,-1899.67"/>
<text text-anchor="middle" x="110.535" y="-1911" font-family="Courier,monospace" font-size="10.00"> CHAN </text>
</g>
<!-- A12&#45;&gt;A13 -->
<g id="edge84" class="edge"><title>A12&#45;&gt;A13</title>
<path fill="none" stroke="black" d="M124.269,-1938.28C129.832,-1928.89 132.903,-1918.38 129.535,-1908 128.505,-1904.83 127.196,-1901.69 125.688,-1898.61"/>
<polygon fill="black" stroke="black" points="128.598,-1896.65 120.649,-1889.65 122.496,-1900.08 128.598,-1896.65"/>
<text text-anchor="middle" x="143.035" y="-1911" font-family="Courier,monospace" font-size="10.00"> TS </text>
</g>
<!-- A14 -->
<g id="node15" class="node"><title>A14</title>
<polygon fill="#aaffaa" stroke="#aaffaa" points="162.535,-1775.5 22.5353,-1775.5 10.5353,-1763.5 10.5353,-1722.5 22.5353,-1710.5 162.535,-1710.5 174.535,-1722.5 174.535,-1763.5 162.535,-1775.5"/>
<path fill="#aaffaa" stroke="#aaffaa" d="M22.5353,-1775.5C16.5353,-1775.5 10.5353,-1769.5 10.5353,-1763.5"/>
<path fill="#aaffaa" stroke="#aaffaa" d="M10.5353,-1722.5C10.5353,-1716.5 16.5353,-1710.5 22.5353,-1710.5"/>
<path fill="#aaffaa" stroke="#aaffaa" d="M162.535,-1710.5C168.535,-1710.5 174.535,-1716.5 174.535,-1722.5"/>
<path fill="#aaffaa" stroke="#aaffaa" d="M174.535,-1763.5C174.535,-1769.5 168.535,-1775.5 162.535,-1775.5"/>
<polyline fill="none" stroke="black" points="162.535,-1775.5 22.5353,-1775.5 "/>
<path fill="none" stroke="black" d="M22.5353,-1775.5C16.5353,-1775.5 10.5353,-1769.5 10.5353,-1763.5"/>
<polyline fill="none" stroke="black" points="10.5353,-1763.5 10.5353,-1722.5 "/>
<path fill="none" stroke="black" d="M10.5353,-1722.5C10.5353,-1716.5 16.5353,-1710.5 22.5353,-1710.5"/>
<polyline fill="none" stroke="black" points="22.5353,-1710.5 162.535,-1710.5 "/>
<path fill="none" stroke="black" d="M162.535,-1710.5C168.535,-1710.5 174.535,-1716.5 174.535,-1722.5"/>
<polyline fill="none" stroke="black" points="174.535,-1722.5 174.535,-1763.5 "/>
<path fill="none" stroke="black" d="M174.535,-1763.5C174.535,-1769.5 168.535,-1775.5 162.535,-1775.5"/>
<text text-anchor="start" x="80.5353" y="-1757.7" font-family="Helvetica,sans-Serif" font-size="12.00">A14</text>
<text text-anchor="start" x="28.0353" y="-1739.2" font-family="Helvetica,sans-Serif" font-size="12.00">AnalysisThreadSeries</text>
<text text-anchor="start" x="23.0353" y="-1721.2" font-family="Helvetica,sans-Serif" font-size="12.00">AnalysisThreadSeries.h</text>
</g>
<!-- A13&#45;&gt;A14 -->
<g id="edge86" class="edge"><title>A13&#45;&gt;A14</title>
<path fill="none" stroke="black" d="M19.0076,-1824.3C12.909,-1819.01 7.55344,-1812.93 3.53529,-1806 -1.44503,-1797.41 -0.64523,-1789.69 3.77455,-1782.85"/>
<polygon fill="black" stroke="black" points="6.50934,-1785.04 10.4964,-1775.22 1.25823,-1780.41 6.50934,-1785.04"/>
<text text-anchor="middle" x="37.0353" y="-1797" font-family="Courier,monospace" font-size="10.00"> ADCOutput </text>
</g>
<!-- A13&#45;&gt;A14 -->
<g id="edge88" class="edge"><title>A13&#45;&gt;A14</title>
<path fill="none" stroke="black" d="M92.5353,-1824.33C92.5353,-1812.41 92.5353,-1798.73 92.5353,-1786.04"/>
<polygon fill="black" stroke="black" points="96.0354,-1785.67 92.5353,-1775.67 89.0354,-1785.67 96.0354,-1785.67"/>
<text text-anchor="middle" x="110.535" y="-1797" font-family="Courier,monospace" font-size="10.00"> CHAN </text>
</g>
<!-- A13&#45;&gt;A14 -->
<g id="edge90" class="edge"><title>A13&#45;&gt;A14</title>
<path fill="none" stroke="black" d="M124.269,-1824.28C129.832,-1814.89 132.903,-1804.38 129.535,-1794 128.505,-1790.83 127.196,-1787.69 125.688,-1784.61"/>
<polygon fill="black" stroke="black" points="128.598,-1782.65 120.649,-1775.65 122.496,-1786.08 128.598,-1782.65"/>
<text text-anchor="middle" x="143.035" y="-1797" font-family="Courier,monospace" font-size="10.00"> TS </text>
</g>
<!-- A15 -->
<g id="node16" class="node"><title>A15</title>
<polygon fill="#aaffaa" stroke="#aaffaa" points="162.535,-1661.5 22.5353,-1661.5 10.5353,-1649.5 10.5353,-1608.5 22.5353,-1596.5 162.535,-1596.5 174.535,-1608.5 174.535,-1649.5 162.535,-1661.5"/>
<path fill="#aaffaa" stroke="#aaffaa" d="M22.5353,-1661.5C16.5353,-1661.5 10.5353,-1655.5 10.5353,-1649.5"/>
<path fill="#aaffaa" stroke="#aaffaa" d="M10.5353,-1608.5C10.5353,-1602.5 16.5353,-1596.5 22.5353,-1596.5"/>
<path fill="#aaffaa" stroke="#aaffaa" d="M162.535,-1596.5C168.535,-1596.5 174.535,-1602.5 174.535,-1608.5"/>
<path fill="#aaffaa" stroke="#aaffaa" d="M174.535,-1649.5C174.535,-1655.5 168.535,-1661.5 162.535,-1661.5"/>
<polyline fill="none" stroke="black" points="162.535,-1661.5 22.5353,-1661.5 "/>
<path fill="none" stroke="black" d="M22.5353,-1661.5C16.5353,-1661.5 10.5353,-1655.5 10.5353,-1649.5"/>
<polyline fill="none" stroke="black" points="10.5353,-1649.5 10.5353,-1608.5 "/>
<path fill="none" stroke="black" d="M10.5353,-1608.5C10.5353,-1602.5 16.5353,-1596.5 22.5353,-1596.5"/>
<polyline fill="none" stroke="black" points="22.5353,-1596.5 162.535,-1596.5 "/>
<path fill="none" stroke="black" d="M162.535,-1596.5C168.535,-1596.5 174.535,-1602.5 174.535,-1608.5"/>
<polyline fill="none" stroke="black" points="174.535,-1608.5 174.535,-1649.5 "/>
<path fill="none" stroke="black" d="M174.535,-1649.5C174.535,-1655.5 168.535,-1661.5 162.535,-1661.5"/>
<text text-anchor="start" x="81.0353" y="-1643.7" font-family="Helvetica,sans-Serif" font-size="12.00">A15</text>
<text text-anchor="start" x="28.0353" y="-1625.2" font-family="Helvetica,sans-Serif" font-size="12.00">AnalysisThreadSeries</text>
<text text-anchor="start" x="23.0353" y="-1607.2" font-family="Helvetica,sans-Serif" font-size="12.00">AnalysisThreadSeries.h</text>
</g>
<!-- A14&#45;&gt;A15 -->
<g id="edge92" class="edge"><title>A14&#45;&gt;A15</title>
<path fill="none" stroke="black" d="M19.0076,-1710.3C12.909,-1705.01 7.55344,-1698.93 3.53529,-1692 -1.44503,-1683.41 -0.64523,-1675.69 3.77455,-1668.85"/>
<polygon fill="black" stroke="black" points="6.50934,-1671.04 10.4964,-1661.22 1.25823,-1666.41 6.50934,-1671.04"/>
<text text-anchor="middle" x="37.0353" y="-1683" font-family="Courier,monospace" font-size="10.00"> ADCOutput </text>
</g>
<!-- A14&#45;&gt;A15 -->
<g id="edge94" class="edge"><title>A14&#45;&gt;A15</title>
<path fill="none" stroke="black" d="M92.5353,-1710.33C92.5353,-1698.41 92.5353,-1684.73 92.5353,-1672.04"/>
<polygon fill="black" stroke="black" points="96.0354,-1671.67 92.5353,-1661.67 89.0354,-1671.67 96.0354,-1671.67"/>
<text text-anchor="middle" x="110.535" y="-1683" font-family="Courier,monospace" font-size="10.00"> CHAN </text>
</g>
<!-- A14&#45;&gt;A15 -->
<g id="edge96" class="edge"><title>A14&#45;&gt;A15</title>
<path fill="none" stroke="black" d="M124.269,-1710.28C129.832,-1700.89 132.903,-1690.38 129.535,-1680 128.505,-1676.83 127.196,-1673.69 125.688,-1670.61"/>
<polygon fill="black" stroke="black" points="128.598,-1668.65 120.649,-1661.65 122.496,-1672.08 128.598,-1668.65"/>
<text text-anchor="middle" x="143.035" y="-1683" font-family="Courier,monospace" font-size="10.00"> TS </text>
</g>
<!-- A16 -->
<g id="node17" class="node"><title>A16</title>
<polygon fill="#aaffaa" stroke="#aaffaa" points="162.535,-1547.5 22.5353,-1547.5 10.5353,-1535.5 10.5353,-1494.5 22.5353,-1482.5 162.535,-1482.5 174.535,-1494.5 174.535,-1535.5 162.535,-1547.5"/>
<path fill="#aaffaa" stroke="#aaffaa" d="M22.5353,-1547.5C16.5353,-1547.5 10.5353,-1541.5 10.5353,-1535.5"/>
<path fill="#aaffaa" stroke="#aaffaa" d="M10.5353,-1494.5C10.5353,-1488.5 16.5353,-1482.5 22.5353,-1482.5"/>
<path fill="#aaffaa" stroke="#aaffaa" d="M162.535,-1482.5C168.535,-1482.5 174.535,-1488.5 174.535,-1494.5"/>
<path fill="#aaffaa" stroke="#aaffaa" d="M174.535,-1535.5C174.535,-1541.5 168.535,-1547.5 162.535,-1547.5"/>
<polyline fill="none" stroke="black" points="162.535,-1547.5 22.5353,-1547.5 "/>
<path fill="none" stroke="black" d="M22.5353,-1547.5C16.5353,-1547.5 10.5353,-1541.5 10.5353,-1535.5"/>
<polyline fill="none" stroke="black" points="10.5353,-1535.5 10.5353,-1494.5 "/>
<path fill="none" stroke="black" d="M10.5353,-1494.5C10.5353,-1488.5 16.5353,-1482.5 22.5353,-1482.5"/>
<polyline fill="none" stroke="black" points="22.5353,-1482.5 162.535,-1482.5 "/>
<path fill="none" stroke="black" d="M162.535,-1482.5C168.535,-1482.5 174.535,-1488.5 174.535,-1494.5"/>
<polyline fill="none" stroke="black" points="174.535,-1494.5 174.535,-1535.5 "/>
<path fill="none" stroke="black" d="M174.535,-1535.5C174.535,-1541.5 168.535,-1547.5 162.535,-1547.5"/>
<text text-anchor="start" x="80.5353" y="-1529.7" font-family="Helvetica,sans-Serif" font-size="12.00">A16</text>
<text text-anchor="start" x="28.0353" y="-1511.2" font-family="Helvetica,sans-Serif" font-size="12.00">AnalysisThreadSeries</text>
<text text-anchor="start" x="23.0353" y="-1493.2" font-family="Helvetica,sans-Serif" font-size="12.00">AnalysisThreadSeries.h</text>
</g>
<!-- A15&#45;&gt;A16 -->
<g id="edge98" class="edge"><title>A15&#45;&gt;A16</title>
<path fill="none" stroke="black" d="M19.0076,-1596.3C12.909,-1591.01 7.55344,-1584.93 3.53529,-1578 -1.44503,-1569.41 -0.64523,-1561.69 3.77455,-1554.85"/>
<polygon fill="black" stroke="black" points="6.50934,-1557.04 10.4964,-1547.22 1.25823,-1552.41 6.50934,-1557.04"/>
<text text-anchor="middle" x="37.0353" y="-1569" font-family="Courier,monospace" font-size="10.00"> ADCOutput </text>
</g>
<!-- A15&#45;&gt;A16 -->
<g id="edge100" class="edge"><title>A15&#45;&gt;A16</title>
<path fill="none" stroke="black" d="M92.5353,-1596.33C92.5353,-1584.41 92.5353,-1570.73 92.5353,-1558.04"/>
<polygon fill="black" stroke="black" points="96.0354,-1557.67 92.5353,-1547.67 89.0354,-1557.67 96.0354,-1557.67"/>
<text text-anchor="middle" x="110.535" y="-1569" font-family="Courier,monospace" font-size="10.00"> CHAN </text>
</g>
<!-- A15&#45;&gt;A16 -->
<g id="edge102" class="edge"><title>A15&#45;&gt;A16</title>
<path fill="none" stroke="black" d="M124.269,-1596.28C129.832,-1586.89 132.903,-1576.38 129.535,-1566 128.505,-1562.83 127.196,-1559.69 125.688,-1556.61"/>
<polygon fill="black" stroke="black" points="128.598,-1554.65 120.649,-1547.65 122.496,-1558.08 128.598,-1554.65"/>
<text text-anchor="middle" x="143.035" y="-1569" font-family="Courier,monospace" font-size="10.00"> TS </text>
</g>
<!-- A17 -->
<g id="node18" class="node"><title>A17</title>
<polygon fill="#aaffaa" stroke="#aaffaa" points="162.535,-1433.5 22.5353,-1433.5 10.5353,-1421.5 10.5353,-1380.5 22.5353,-1368.5 162.535,-1368.5 174.535,-1380.5 174.535,-1421.5 162.535,-1433.5"/>
<path fill="#aaffaa" stroke="#aaffaa" d="M22.5353,-1433.5C16.5353,-1433.5 10.5353,-1427.5 10.5353,-1421.5"/>
<path fill="#aaffaa" stroke="#aaffaa" d="M10.5353,-1380.5C10.5353,-1374.5 16.5353,-1368.5 22.5353,-1368.5"/>
<path fill="#aaffaa" stroke="#aaffaa" d="M162.535,-1368.5C168.535,-1368.5 174.535,-1374.5 174.535,-1380.5"/>
<path fill="#aaffaa" stroke="#aaffaa" d="M174.535,-1421.5C174.535,-1427.5 168.535,-1433.5 162.535,-1433.5"/>
<polyline fill="none" stroke="black" points="162.535,-1433.5 22.5353,-1433.5 "/>
<path fill="none" stroke="black" d="M22.5353,-1433.5C16.5353,-1433.5 10.5353,-1427.5 10.5353,-1421.5"/>
<polyline fill="none" stroke="black" points="10.5353,-1421.5 10.5353,-1380.5 "/>
<path fill="none" stroke="black" d="M10.5353,-1380.5C10.5353,-1374.5 16.5353,-1368.5 22.5353,-1368.5"/>
<polyline fill="none" stroke="black" points="22.5353,-1368.5 162.535,-1368.5 "/>
<path fill="none" stroke="black" d="M162.535,-1368.5C168.535,-1368.5 174.535,-1374.5 174.535,-1380.5"/>
<polyline fill="none" stroke="black" points="174.535,-1380.5 174.535,-1421.5 "/>
<path fill="none" stroke="black" d="M174.535,-1421.5C174.535,-1427.5 168.535,-1433.5 162.535,-1433.5"/>
<text text-anchor="start" x="80.5353" y="-1415.7" font-family="Helvetica,sans-Serif" font-size="12.00">A17</text>
<text text-anchor="start" x="28.0353" y="-1397.2" font-family="Helvetica,sans-Serif" font-size="12.00">AnalysisThreadSeries</text>
<text text-anchor="start" x="23.0353" y="-1379.2" font-family="Helvetica,sans-Serif" font-size="12.00">AnalysisThreadSeries.h</text>
</g>
<!-- A16&#45;&gt;A17 -->
<g id="edge104" class="edge"><title>A16&#45;&gt;A17</title>
<path fill="none" stroke="black" d="M19.0076,-1482.3C12.909,-1477.01 7.55344,-1470.93 3.53529,-1464 -1.44503,-1455.41 -0.64523,-1447.69 3.77455,-1440.85"/>
<polygon fill="black" stroke="black" points="6.50934,-1443.04 10.4964,-1433.22 1.25823,-1438.41 6.50934,-1443.04"/>
<text text-anchor="middle" x="37.0353" y="-1455" font-family="Courier,monospace" font-size="10.00"> ADCOutput </text>
</g>
<!-- A16&#45;&gt;A17 -->
<g id="edge106" class="edge"><title>A16&#45;&gt;A17</title>
<path fill="none" stroke="black" d="M92.5353,-1482.33C92.5353,-1470.41 92.5353,-1456.73 92.5353,-1444.04"/>
<polygon fill="black" stroke="black" points="96.0354,-1443.67 92.5353,-1433.67 89.0354,-1443.67 96.0354,-1443.67"/>
<text text-anchor="middle" x="110.535" y="-1455" font-family="Courier,monospace" font-size="10.00"> CHAN </text>
</g>
<!-- A16&#45;&gt;A17 -->
<g id="edge108" class="edge"><title>A16&#45;&gt;A17</title>
<path fill="none" stroke="black" d="M124.269,-1482.28C129.832,-1472.89 132.903,-1462.38 129.535,-1452 128.505,-1448.83 127.196,-1445.69 125.688,-1442.61"/>
<polygon fill="black" stroke="black" points="128.598,-1440.65 120.649,-1433.65 122.496,-1444.08 128.598,-1440.65"/>
<text text-anchor="middle" x="143.035" y="-1455" font-family="Courier,monospace" font-size="10.00"> TS </text>
</g>
<!-- A18 -->
<g id="node19" class="node"><title>A18</title>
<polygon fill="#aaffaa" stroke="#aaffaa" points="162.535,-1319.5 22.5353,-1319.5 10.5353,-1307.5 10.5353,-1266.5 22.5353,-1254.5 162.535,-1254.5 174.535,-1266.5 174.535,-1307.5 162.535,-1319.5"/>
<path fill="#aaffaa" stroke="#aaffaa" d="M22.5353,-1319.5C16.5353,-1319.5 10.5353,-1313.5 10.5353,-1307.5"/>
<path fill="#aaffaa" stroke="#aaffaa" d="M10.5353,-1266.5C10.5353,-1260.5 16.5353,-1254.5 22.5353,-1254.5"/>
<path fill="#aaffaa" stroke="#aaffaa" d="M162.535,-1254.5C168.535,-1254.5 174.535,-1260.5 174.535,-1266.5"/>
<path fill="#aaffaa" stroke="#aaffaa" d="M174.535,-1307.5C174.535,-1313.5 168.535,-1319.5 162.535,-1319.5"/>
<polyline fill="none" stroke="black" points="162.535,-1319.5 22.5353,-1319.5 "/>
<path fill="none" stroke="black" d="M22.5353,-1319.5C16.5353,-1319.5 10.5353,-1313.5 10.5353,-1307.5"/>
<polyline fill="none" stroke="black" points="10.5353,-1307.5 10.5353,-1266.5 "/>
<path fill="none" stroke="black" d="M10.5353,-1266.5C10.5353,-1260.5 16.5353,-1254.5 22.5353,-1254.5"/>
<polyline fill="none" stroke="black" points="22.5353,-1254.5 162.535,-1254.5 "/>
<path fill="none" stroke="black" d="M162.535,-1254.5C168.535,-1254.5 174.535,-1260.5 174.535,-1266.5"/>
<polyline fill="none" stroke="black" points="174.535,-1266.5 174.535,-1307.5 "/>
<path fill="none" stroke="black" d="M174.535,-1307.5C174.535,-1313.5 168.535,-1319.5 162.535,-1319.5"/>
<text text-anchor="start" x="80.5353" y="-1301.7" font-family="Helvetica,sans-Serif" font-size="12.00">A18</text>
<text text-anchor="start" x="28.0353" y="-1283.2" font-family="Helvetica,sans-Serif" font-size="12.00">AnalysisThreadSeries</text>
<text text-anchor="start" x="23.0353" y="-1265.2" font-family="Helvetica,sans-Serif" font-size="12.00">AnalysisThreadSeries.h</text>
</g>
<!-- A17&#45;&gt;A18 -->
<g id="edge110" class="edge"><title>A17&#45;&gt;A18</title>
<path fill="none" stroke="black" d="M19.0076,-1368.3C12.909,-1363.01 7.55344,-1356.93 3.53529,-1350 -1.44503,-1341.41 -0.64523,-1333.69 3.77455,-1326.85"/>
<polygon fill="black" stroke="black" points="6.50934,-1329.04 10.4964,-1319.22 1.25823,-1324.41 6.50934,-1329.04"/>
<text text-anchor="middle" x="37.0353" y="-1341" font-family="Courier,monospace" font-size="10.00"> ADCOutput </text>
</g>
<!-- A17&#45;&gt;A18 -->
<g id="edge112" class="edge"><title>A17&#45;&gt;A18</title>
<path fill="none" stroke="black" d="M92.5353,-1368.33C92.5353,-1356.41 92.5353,-1342.73 92.5353,-1330.04"/>
<polygon fill="black" stroke="black" points="96.0354,-1329.67 92.5353,-1319.67 89.0354,-1329.67 96.0354,-1329.67"/>
<text text-anchor="middle" x="110.535" y="-1341" font-family="Courier,monospace" font-size="10.00"> CHAN </text>
</g>
<!-- A17&#45;&gt;A18 -->
<g id="edge114" class="edge"><title>A17&#45;&gt;A18</title>
<path fill="none" stroke="black" d="M124.269,-1368.28C129.832,-1358.89 132.903,-1348.38 129.535,-1338 128.505,-1334.83 127.196,-1331.69 125.688,-1328.61"/>
<polygon fill="black" stroke="black" points="128.598,-1326.65 120.649,-1319.65 122.496,-1330.08 128.598,-1326.65"/>
<text text-anchor="middle" x="143.035" y="-1341" font-family="Courier,monospace" font-size="10.00"> TS </text>
</g>
<!-- A19 -->
<g id="node20" class="node"><title>A19</title>
<polygon fill="#aaffaa" stroke="#aaffaa" points="162.535,-1205.5 22.5353,-1205.5 10.5353,-1193.5 10.5353,-1152.5 22.5353,-1140.5 162.535,-1140.5 174.535,-1152.5 174.535,-1193.5 162.535,-1205.5"/>
<path fill="#aaffaa" stroke="#aaffaa" d="M22.5353,-1205.5C16.5353,-1205.5 10.5353,-1199.5 10.5353,-1193.5"/>
<path fill="#aaffaa" stroke="#aaffaa" d="M10.5353,-1152.5C10.5353,-1146.5 16.5353,-1140.5 22.5353,-1140.5"/>
<path fill="#aaffaa" stroke="#aaffaa" d="M162.535,-1140.5C168.535,-1140.5 174.535,-1146.5 174.535,-1152.5"/>
<path fill="#aaffaa" stroke="#aaffaa" d="M174.535,-1193.5C174.535,-1199.5 168.535,-1205.5 162.535,-1205.5"/>
<polyline fill="none" stroke="black" points="162.535,-1205.5 22.5353,-1205.5 "/>
<path fill="none" stroke="black" d="M22.5353,-1205.5C16.5353,-1205.5 10.5353,-1199.5 10.5353,-1193.5"/>
<polyline fill="none" stroke="black" points="10.5353,-1193.5 10.5353,-1152.5 "/>
<path fill="none" stroke="black" d="M10.5353,-1152.5C10.5353,-1146.5 16.5353,-1140.5 22.5353,-1140.5"/>
<polyline fill="none" stroke="black" points="22.5353,-1140.5 162.535,-1140.5 "/>
<path fill="none" stroke="black" d="M162.535,-1140.5C168.535,-1140.5 174.535,-1146.5 174.535,-1152.5"/>
<polyline fill="none" stroke="black" points="174.535,-1152.5 174.535,-1193.5 "/>
<path fill="none" stroke="black" d="M174.535,-1193.5C174.535,-1199.5 168.535,-1205.5 162.535,-1205.5"/>
<text text-anchor="start" x="80.5353" y="-1187.7" font-family="Helvetica,sans-Serif" font-size="12.00">A19</text>
<text text-anchor="start" x="28.0353" y="-1169.2" font-family="Helvetica,sans-Serif" font-size="12.00">AnalysisThreadSeries</text>
<text text-anchor="start" x="23.0353" y="-1151.2" font-family="Helvetica,sans-Serif" font-size="12.00">AnalysisThreadSeries.h</text>
</g>
<!-- A18&#45;&gt;A19 -->
<g id="edge116" class="edge"><title>A18&#45;&gt;A19</title>
<path fill="none" stroke="black" d="M19.0076,-1254.3C12.909,-1249.01 7.55344,-1242.93 3.53529,-1236 -1.44503,-1227.41 -0.64523,-1219.69 3.77455,-1212.85"/>
<polygon fill="black" stroke="black" points="6.50934,-1215.04 10.4964,-1205.22 1.25823,-1210.41 6.50934,-1215.04"/>
<text text-anchor="middle" x="37.0353" y="-1227" font-family="Courier,monospace" font-size="10.00"> ADCOutput </text>
</g>
<!-- A18&#45;&gt;A19 -->
<g id="edge118" class="edge"><title>A18&#45;&gt;A19</title>
<path fill="none" stroke="black" d="M92.5353,-1254.33C92.5353,-1242.41 92.5353,-1228.73 92.5353,-1216.04"/>
<polygon fill="black" stroke="black" points="96.0354,-1215.67 92.5353,-1205.67 89.0354,-1215.67 96.0354,-1215.67"/>
<text text-anchor="middle" x="110.535" y="-1227" font-family="Courier,monospace" font-size="10.00"> CHAN </text>
</g>
<!-- A18&#45;&gt;A19 -->
<g id="edge120" class="edge"><title>A18&#45;&gt;A19</title>
<path fill="none" stroke="black" d="M124.269,-1254.28C129.832,-1244.89 132.903,-1234.38 129.535,-1224 128.505,-1220.83 127.196,-1217.69 125.688,-1214.61"/>
<polygon fill="black" stroke="black" points="128.598,-1212.65 120.649,-1205.65 122.496,-1216.08 128.598,-1212.65"/>
<text text-anchor="middle" x="143.035" y="-1227" font-family="Courier,monospace" font-size="10.00"> TS </text>
</g>
<!-- A20 -->
<g id="node21" class="node"><title>A20</title>
<polygon fill="#aaffaa" stroke="#aaffaa" points="162.535,-1091.5 22.5353,-1091.5 10.5353,-1079.5 10.5353,-1038.5 22.5353,-1026.5 162.535,-1026.5 174.535,-1038.5 174.535,-1079.5 162.535,-1091.5"/>
<path fill="#aaffaa" stroke="#aaffaa" d="M22.5353,-1091.5C16.5353,-1091.5 10.5353,-1085.5 10.5353,-1079.5"/>
<path fill="#aaffaa" stroke="#aaffaa" d="M10.5353,-1038.5C10.5353,-1032.5 16.5353,-1026.5 22.5353,-1026.5"/>
<path fill="#aaffaa" stroke="#aaffaa" d="M162.535,-1026.5C168.535,-1026.5 174.535,-1032.5 174.535,-1038.5"/>
<path fill="#aaffaa" stroke="#aaffaa" d="M174.535,-1079.5C174.535,-1085.5 168.535,-1091.5 162.535,-1091.5"/>
<polyline fill="none" stroke="black" points="162.535,-1091.5 22.5353,-1091.5 "/>
<path fill="none" stroke="black" d="M22.5353,-1091.5C16.5353,-1091.5 10.5353,-1085.5 10.5353,-1079.5"/>
<polyline fill="none" stroke="black" points="10.5353,-1079.5 10.5353,-1038.5 "/>
<path fill="none" stroke="black" d="M10.5353,-1038.5C10.5353,-1032.5 16.5353,-1026.5 22.5353,-1026.5"/>
<polyline fill="none" stroke="black" points="22.5353,-1026.5 162.535,-1026.5 "/>
<path fill="none" stroke="black" d="M162.535,-1026.5C168.535,-1026.5 174.535,-1032.5 174.535,-1038.5"/>
<polyline fill="none" stroke="black" points="174.535,-1038.5 174.535,-1079.5 "/>
<path fill="none" stroke="black" d="M174.535,-1079.5C174.535,-1085.5 168.535,-1091.5 162.535,-1091.5"/>
<text text-anchor="start" x="80.5353" y="-1073.7" font-family="Helvetica,sans-Serif" font-size="12.00">A20</text>
<text text-anchor="start" x="28.0353" y="-1055.2" font-family="Helvetica,sans-Serif" font-size="12.00">AnalysisThreadSeries</text>
<text text-anchor="start" x="23.0353" y="-1037.2" font-family="Helvetica,sans-Serif" font-size="12.00">AnalysisThreadSeries.h</text>
</g>
<!-- A19&#45;&gt;A20 -->
<g id="edge122" class="edge"><title>A19&#45;&gt;A20</title>
<path fill="none" stroke="black" d="M19.0076,-1140.3C12.909,-1135.01 7.55344,-1128.93 3.53529,-1122 -1.44503,-1113.41 -0.64523,-1105.69 3.77455,-1098.85"/>
<polygon fill="black" stroke="black" points="6.50934,-1101.04 10.4964,-1091.22 1.25823,-1096.41 6.50934,-1101.04"/>
<text text-anchor="middle" x="37.0353" y="-1113" font-family="Courier,monospace" font-size="10.00"> ADCOutput </text>
</g>
<!-- A19&#45;&gt;A20 -->
<g id="edge124" class="edge"><title>A19&#45;&gt;A20</title>
<path fill="none" stroke="black" d="M92.5353,-1140.33C92.5353,-1128.41 92.5353,-1114.73 92.5353,-1102.04"/>
<polygon fill="black" stroke="black" points="96.0354,-1101.67 92.5353,-1091.67 89.0354,-1101.67 96.0354,-1101.67"/>
<text text-anchor="middle" x="110.535" y="-1113" font-family="Courier,monospace" font-size="10.00"> CHAN </text>
</g>
<!-- A19&#45;&gt;A20 -->
<g id="edge126" class="edge"><title>A19&#45;&gt;A20</title>
<path fill="none" stroke="black" d="M124.269,-1140.28C129.832,-1130.89 132.903,-1120.38 129.535,-1110 128.505,-1106.83 127.196,-1103.69 125.688,-1100.61"/>
<polygon fill="black" stroke="black" points="128.598,-1098.65 120.649,-1091.65 122.496,-1102.08 128.598,-1098.65"/>
<text text-anchor="middle" x="143.035" y="-1113" font-family="Courier,monospace" font-size="10.00"> TS </text>
</g>
<!-- A21 -->
<g id="node22" class="node"><title>A21</title>
<polygon fill="#aaffaa" stroke="#aaffaa" points="162.535,-977.5 22.5353,-977.5 10.5353,-965.5 10.5353,-924.5 22.5353,-912.5 162.535,-912.5 174.535,-924.5 174.535,-965.5 162.535,-977.5"/>
<path fill="#aaffaa" stroke="#aaffaa" d="M22.5353,-977.5C16.5353,-977.5 10.5353,-971.5 10.5353,-965.5"/>
<path fill="#aaffaa" stroke="#aaffaa" d="M10.5353,-924.5C10.5353,-918.5 16.5353,-912.5 22.5353,-912.5"/>
<path fill="#aaffaa" stroke="#aaffaa" d="M162.535,-912.5C168.535,-912.5 174.535,-918.5 174.535,-924.5"/>
<path fill="#aaffaa" stroke="#aaffaa" d="M174.535,-965.5C174.535,-971.5 168.535,-977.5 162.535,-977.5"/>
<polyline fill="none" stroke="black" points="162.535,-977.5 22.5353,-977.5 "/>
<path fill="none" stroke="black" d="M22.5353,-977.5C16.5353,-977.5 10.5353,-971.5 10.5353,-965.5"/>
<polyline fill="none" stroke="black" points="10.5353,-965.5 10.5353,-924.5 "/>
<path fill="none" stroke="black" d="M10.5353,-924.5C10.5353,-918.5 16.5353,-912.5 22.5353,-912.5"/>
<polyline fill="none" stroke="black" points="22.5353,-912.5 162.535,-912.5 "/>
<path fill="none" stroke="black" d="M162.535,-912.5C168.535,-912.5 174.535,-918.5 174.535,-924.5"/>
<polyline fill="none" stroke="black" points="174.535,-924.5 174.535,-965.5 "/>
<path fill="none" stroke="black" d="M174.535,-965.5C174.535,-971.5 168.535,-977.5 162.535,-977.5"/>
<text text-anchor="start" x="81.0353" y="-959.7" font-family="Helvetica,sans-Serif" font-size="12.00">A21</text>
<text text-anchor="start" x="28.0353" y="-941.2" font-family="Helvetica,sans-Serif" font-size="12.00">AnalysisThreadSeries</text>
<text text-anchor="start" x="23.0353" y="-923.2" font-family="Helvetica,sans-Serif" font-size="12.00">AnalysisThreadSeries.h</text>
</g>
<!-- A20&#45;&gt;A21 -->
<g id="edge128" class="edge"><title>A20&#45;&gt;A21</title>
<path fill="none" stroke="black" d="M19.0076,-1026.3C12.909,-1021.01 7.55344,-1014.93 3.53529,-1008 -1.44503,-999.406 -0.64523,-991.688 3.77455,-984.849"/>
<polygon fill="black" stroke="black" points="6.50934,-987.039 10.4964,-977.223 1.25823,-982.411 6.50934,-987.039"/>
<text text-anchor="middle" x="37.0353" y="-999" font-family="Courier,monospace" font-size="10.00"> ADCOutput </text>
</g>
<!-- A20&#45;&gt;A21 -->
<g id="edge130" class="edge"><title>A20&#45;&gt;A21</title>
<path fill="none" stroke="black" d="M92.5353,-1026.33C92.5353,-1014.41 92.5353,-1000.73 92.5353,-988.042"/>
<polygon fill="black" stroke="black" points="96.0354,-987.673 92.5353,-977.673 89.0354,-987.673 96.0354,-987.673"/>
<text text-anchor="middle" x="110.535" y="-999" font-family="Courier,monospace" font-size="10.00"> CHAN </text>
</g>
<!-- A20&#45;&gt;A21 -->
<g id="edge132" class="edge"><title>A20&#45;&gt;A21</title>
<path fill="none" stroke="black" d="M124.269,-1026.28C129.832,-1016.89 132.903,-1006.38 129.535,-996 128.505,-992.827 127.196,-989.685 125.688,-986.614"/>
<polygon fill="black" stroke="black" points="128.598,-984.649 120.649,-977.645 122.496,-988.078 128.598,-984.649"/>
<text text-anchor="middle" x="143.035" y="-999" font-family="Courier,monospace" font-size="10.00"> TS </text>
</g>
<!-- A22 -->
<g id="node23" class="node"><title>A22</title>
<polygon fill="#aaffaa" stroke="#aaffaa" points="162.535,-863.5 22.5353,-863.5 10.5353,-851.5 10.5353,-810.5 22.5353,-798.5 162.535,-798.5 174.535,-810.5 174.535,-851.5 162.535,-863.5"/>
<path fill="#aaffaa" stroke="#aaffaa" d="M22.5353,-863.5C16.5353,-863.5 10.5353,-857.5 10.5353,-851.5"/>
<path fill="#aaffaa" stroke="#aaffaa" d="M10.5353,-810.5C10.5353,-804.5 16.5353,-798.5 22.5353,-798.5"/>
<path fill="#aaffaa" stroke="#aaffaa" d="M162.535,-798.5C168.535,-798.5 174.535,-804.5 174.535,-810.5"/>
<path fill="#aaffaa" stroke="#aaffaa" d="M174.535,-851.5C174.535,-857.5 168.535,-863.5 162.535,-863.5"/>
<polyline fill="none" stroke="black" points="162.535,-863.5 22.5353,-863.5 "/>
<path fill="none" stroke="black" d="M22.5353,-863.5C16.5353,-863.5 10.5353,-857.5 10.5353,-851.5"/>
<polyline fill="none" stroke="black" points="10.5353,-851.5 10.5353,-810.5 "/>
<path fill="none" stroke="black" d="M10.5353,-810.5C10.5353,-804.5 16.5353,-798.5 22.5353,-798.5"/>
<polyline fill="none" stroke="black" points="22.5353,-798.5 162.535,-798.5 "/>
<path fill="none" stroke="black" d="M162.535,-798.5C168.535,-798.5 174.535,-804.5 174.535,-810.5"/>
<polyline fill="none" stroke="black" points="174.535,-810.5 174.535,-851.5 "/>
<path fill="none" stroke="black" d="M174.535,-851.5C174.535,-857.5 168.535,-863.5 162.535,-863.5"/>
<text text-anchor="start" x="81.0353" y="-845.7" font-family="Helvetica,sans-Serif" font-size="12.00">A22</text>
<text text-anchor="start" x="28.0353" y="-827.2" font-family="Helvetica,sans-Serif" font-size="12.00">AnalysisThreadSeries</text>
<text text-anchor="start" x="23.0353" y="-809.2" font-family="Helvetica,sans-Serif" font-size="12.00">AnalysisThreadSeries.h</text>
</g>
<!-- A21&#45;&gt;A22 -->
<g id="edge134" class="edge"><title>A21&#45;&gt;A22</title>
<path fill="none" stroke="black" d="M19.0076,-912.304C12.909,-907.006 7.55344,-900.934 3.53529,-894 -1.44503,-885.406 -0.64523,-877.688 3.77455,-870.849"/>
<polygon fill="black" stroke="black" points="6.50934,-873.039 10.4964,-863.223 1.25823,-868.411 6.50934,-873.039"/>
<text text-anchor="middle" x="37.0353" y="-885" font-family="Courier,monospace" font-size="10.00"> ADCOutput </text>
</g>
<!-- A21&#45;&gt;A22 -->
<g id="edge136" class="edge"><title>A21&#45;&gt;A22</title>
<path fill="none" stroke="black" d="M92.5353,-912.332C92.5353,-900.407 92.5353,-886.732 92.5353,-874.042"/>
<polygon fill="black" stroke="black" points="96.0354,-873.673 92.5353,-863.673 89.0354,-873.673 96.0354,-873.673"/>
<text text-anchor="middle" x="110.535" y="-885" font-family="Courier,monospace" font-size="10.00"> CHAN </text>
</g>
<!-- A21&#45;&gt;A22 -->
<g id="edge138" class="edge"><title>A21&#45;&gt;A22</title>
<path fill="none" stroke="black" d="M124.269,-912.279C129.832,-902.89 132.903,-892.376 129.535,-882 128.505,-878.827 127.196,-875.685 125.688,-872.614"/>
<polygon fill="black" stroke="black" points="128.598,-870.649 120.649,-863.645 122.496,-874.078 128.598,-870.649"/>
<text text-anchor="middle" x="143.035" y="-885" font-family="Courier,monospace" font-size="10.00"> TS </text>
</g>
<!-- A23 -->
<g id="node24" class="node"><title>A23</title>
<polygon fill="#aaffaa" stroke="#aaffaa" points="162.535,-749.5 22.5353,-749.5 10.5353,-737.5 10.5353,-696.5 22.5353,-684.5 162.535,-684.5 174.535,-696.5 174.535,-737.5 162.535,-749.5"/>
<path fill="#aaffaa" stroke="#aaffaa" d="M22.5353,-749.5C16.5353,-749.5 10.5353,-743.5 10.5353,-737.5"/>
<path fill="#aaffaa" stroke="#aaffaa" d="M10.5353,-696.5C10.5353,-690.5 16.5353,-684.5 22.5353,-684.5"/>
<path fill="#aaffaa" stroke="#aaffaa" d="M162.535,-684.5C168.535,-684.5 174.535,-690.5 174.535,-696.5"/>
<path fill="#aaffaa" stroke="#aaffaa" d="M174.535,-737.5C174.535,-743.5 168.535,-749.5 162.535,-749.5"/>
<polyline fill="none" stroke="black" points="162.535,-749.5 22.5353,-749.5 "/>
<path fill="none" stroke="black" d="M22.5353,-749.5C16.5353,-749.5 10.5353,-743.5 10.5353,-737.5"/>
<polyline fill="none" stroke="black" points="10.5353,-737.5 10.5353,-696.5 "/>
<path fill="none" stroke="black" d="M10.5353,-696.5C10.5353,-690.5 16.5353,-684.5 22.5353,-684.5"/>
<polyline fill="none" stroke="black" points="22.5353,-684.5 162.535,-684.5 "/>
<path fill="none" stroke="black" d="M162.535,-684.5C168.535,-684.5 174.535,-690.5 174.535,-696.5"/>
<polyline fill="none" stroke="black" points="174.535,-696.5 174.535,-737.5 "/>
<path fill="none" stroke="black" d="M174.535,-737.5C174.535,-743.5 168.535,-749.5 162.535,-749.5"/>
<text text-anchor="start" x="81.0353" y="-731.7" font-family="Helvetica,sans-Serif" font-size="12.00">A23</text>
<text text-anchor="start" x="28.0353" y="-713.2" font-family="Helvetica,sans-Serif" font-size="12.00">AnalysisThreadSeries</text>
<text text-anchor="start" x="23.0353" y="-695.2" font-family="Helvetica,sans-Serif" font-size="12.00">AnalysisThreadSeries.h</text>
</g>
<!-- A22&#45;&gt;A23 -->
<g id="edge140" class="edge"><title>A22&#45;&gt;A23</title>
<path fill="none" stroke="black" d="M19.0076,-798.304C12.909,-793.006 7.55344,-786.934 3.53529,-780 -1.44503,-771.406 -0.64523,-763.688 3.77455,-756.849"/>
<polygon fill="black" stroke="black" points="6.50934,-759.039 10.4964,-749.223 1.25823,-754.411 6.50934,-759.039"/>
<text text-anchor="middle" x="37.0353" y="-771" font-family="Courier,monospace" font-size="10.00"> ADCOutput </text>
</g>
<!-- A22&#45;&gt;A23 -->
<g id="edge142" class="edge"><title>A22&#45;&gt;A23</title>
<path fill="none" stroke="black" d="M92.5353,-798.332C92.5353,-786.407 92.5353,-772.732 92.5353,-760.042"/>
<polygon fill="black" stroke="black" points="96.0354,-759.673 92.5353,-749.673 89.0354,-759.673 96.0354,-759.673"/>
<text text-anchor="middle" x="110.535" y="-771" font-family="Courier,monospace" font-size="10.00"> CHAN </text>
</g>
<!-- A22&#45;&gt;A23 -->
<g id="edge144" class="edge"><title>A22&#45;&gt;A23</title>
<path fill="none" stroke="black" d="M124.269,-798.279C129.832,-788.89 132.903,-778.376 129.535,-768 128.505,-764.827 127.196,-761.685 125.688,-758.614"/>
<polygon fill="black" stroke="black" points="128.598,-756.649 120.649,-749.645 122.496,-760.078 128.598,-756.649"/>
<text text-anchor="middle" x="143.035" y="-771" font-family="Courier,monospace" font-size="10.00"> TS </text>
</g>
<!-- A24 -->
<g id="node25" class="node"><title>A24</title>
<polygon fill="#aaffaa" stroke="#aaffaa" points="162.535,-635.5 22.5353,-635.5 10.5353,-623.5 10.5353,-582.5 22.5353,-570.5 162.535,-570.5 174.535,-582.5 174.535,-623.5 162.535,-635.5"/>
<path fill="#aaffaa" stroke="#aaffaa" d="M22.5353,-635.5C16.5353,-635.5 10.5353,-629.5 10.5353,-623.5"/>
<path fill="#aaffaa" stroke="#aaffaa" d="M10.5353,-582.5C10.5353,-576.5 16.5353,-570.5 22.5353,-570.5"/>
<path fill="#aaffaa" stroke="#aaffaa" d="M162.535,-570.5C168.535,-570.5 174.535,-576.5 174.535,-582.5"/>
<path fill="#aaffaa" stroke="#aaffaa" d="M174.535,-623.5C174.535,-629.5 168.535,-635.5 162.535,-635.5"/>
<polyline fill="none" stroke="black" points="162.535,-635.5 22.5353,-635.5 "/>
<path fill="none" stroke="black" d="M22.5353,-635.5C16.5353,-635.5 10.5353,-629.5 10.5353,-623.5"/>
<polyline fill="none" stroke="black" points="10.5353,-623.5 10.5353,-582.5 "/>
<path fill="none" stroke="black" d="M10.5353,-582.5C10.5353,-576.5 16.5353,-570.5 22.5353,-570.5"/>
<polyline fill="none" stroke="black" points="22.5353,-570.5 162.535,-570.5 "/>
<path fill="none" stroke="black" d="M162.535,-570.5C168.535,-570.5 174.535,-576.5 174.535,-582.5"/>
<polyline fill="none" stroke="black" points="174.535,-582.5 174.535,-623.5 "/>
<path fill="none" stroke="black" d="M174.535,-623.5C174.535,-629.5 168.535,-635.5 162.535,-635.5"/>
<text text-anchor="start" x="80.5353" y="-617.7" font-family="Helvetica,sans-Serif" font-size="12.00">A24</text>
<text text-anchor="start" x="28.0353" y="-599.2" font-family="Helvetica,sans-Serif" font-size="12.00">AnalysisThreadSeries</text>
<text text-anchor="start" x="23.0353" y="-581.2" font-family="Helvetica,sans-Serif" font-size="12.00">AnalysisThreadSeries.h</text>
</g>
<!-- A23&#45;&gt;A24 -->
<g id="edge146" class="edge"><title>A23&#45;&gt;A24</title>
<path fill="none" stroke="black" d="M19.0076,-684.304C12.909,-679.006 7.55344,-672.934 3.53529,-666 -1.44503,-657.406 -0.64523,-649.688 3.77455,-642.849"/>
<polygon fill="black" stroke="black" points="6.50934,-645.039 10.4964,-635.223 1.25823,-640.411 6.50934,-645.039"/>
<text text-anchor="middle" x="37.0353" y="-657" font-family="Courier,monospace" font-size="10.00"> ADCOutput </text>
</g>
<!-- A23&#45;&gt;A24 -->
<g id="edge148" class="edge"><title>A23&#45;&gt;A24</title>
<path fill="none" stroke="black" d="M92.5353,-684.332C92.5353,-672.407 92.5353,-658.732 92.5353,-646.042"/>
<polygon fill="black" stroke="black" points="96.0354,-645.673 92.5353,-635.673 89.0354,-645.673 96.0354,-645.673"/>
<text text-anchor="middle" x="110.535" y="-657" font-family="Courier,monospace" font-size="10.00"> CHAN </text>
</g>
<!-- A23&#45;&gt;A24 -->
<g id="edge150" class="edge"><title>A23&#45;&gt;A24</title>
<path fill="none" stroke="black" d="M120.649,-684.355C124.297,-678.565 127.475,-672.347 129.535,-666 131.85,-658.867 131.122,-651.668 128.634,-644.814"/>
<polygon fill="black" stroke="black" points="131.752,-643.222 124.269,-635.721 125.441,-646.251 131.752,-643.222"/>
<text text-anchor="middle" x="143.035" y="-657" font-family="Courier,monospace" font-size="10.00"> TS </text>
</g>
<!-- A25 -->
<g id="node26" class="node"><title>A25</title>
<polygon fill="#aaffaa" stroke="#aaffaa" points="162.535,-521.5 22.5353,-521.5 10.5353,-509.5 10.5353,-468.5 22.5353,-456.5 162.535,-456.5 174.535,-468.5 174.535,-509.5 162.535,-521.5"/>
<path fill="#aaffaa" stroke="#aaffaa" d="M22.5353,-521.5C16.5353,-521.5 10.5353,-515.5 10.5353,-509.5"/>
<path fill="#aaffaa" stroke="#aaffaa" d="M10.5353,-468.5C10.5353,-462.5 16.5353,-456.5 22.5353,-456.5"/>
<path fill="#aaffaa" stroke="#aaffaa" d="M162.535,-456.5C168.535,-456.5 174.535,-462.5 174.535,-468.5"/>
<path fill="#aaffaa" stroke="#aaffaa" d="M174.535,-509.5C174.535,-515.5 168.535,-521.5 162.535,-521.5"/>
<polyline fill="none" stroke="black" points="162.535,-521.5 22.5353,-521.5 "/>
<path fill="none" stroke="black" d="M22.5353,-521.5C16.5353,-521.5 10.5353,-515.5 10.5353,-509.5"/>
<polyline fill="none" stroke="black" points="10.5353,-509.5 10.5353,-468.5 "/>
<path fill="none" stroke="black" d="M10.5353,-468.5C10.5353,-462.5 16.5353,-456.5 22.5353,-456.5"/>
<polyline fill="none" stroke="black" points="22.5353,-456.5 162.535,-456.5 "/>
<path fill="none" stroke="black" d="M162.535,-456.5C168.535,-456.5 174.535,-462.5 174.535,-468.5"/>
<polyline fill="none" stroke="black" points="174.535,-468.5 174.535,-509.5 "/>
<path fill="none" stroke="black" d="M174.535,-509.5C174.535,-515.5 168.535,-521.5 162.535,-521.5"/>
<text text-anchor="start" x="81.0353" y="-503.7" font-family="Helvetica,sans-Serif" font-size="12.00">A25</text>
<text text-anchor="start" x="28.0353" y="-485.2" font-family="Helvetica,sans-Serif" font-size="12.00">AnalysisThreadSeries</text>
<text text-anchor="start" x="23.0353" y="-467.2" font-family="Helvetica,sans-Serif" font-size="12.00">AnalysisThreadSeries.h</text>
</g>
<!-- A24&#45;&gt;A25 -->
<g id="edge152" class="edge"><title>A24&#45;&gt;A25</title>
<path fill="none" stroke="black" d="M19.0076,-570.304C12.909,-565.006 7.55344,-558.934 3.53529,-552 -1.44503,-543.406 -0.64523,-535.688 3.77455,-528.849"/>
<polygon fill="black" stroke="black" points="6.50934,-531.039 10.4964,-521.223 1.25823,-526.411 6.50934,-531.039"/>
<text text-anchor="middle" x="37.0353" y="-543" font-family="Courier,monospace" font-size="10.00"> ADCOutput </text>
</g>
<!-- A24&#45;&gt;A25 -->
<g id="edge154" class="edge"><title>A24&#45;&gt;A25</title>
<path fill="none" stroke="black" d="M92.5353,-570.332C92.5353,-558.407 92.5353,-544.732 92.5353,-532.042"/>
<polygon fill="black" stroke="black" points="96.0354,-531.673 92.5353,-521.673 89.0354,-531.673 96.0354,-531.673"/>
<text text-anchor="middle" x="110.535" y="-543" font-family="Courier,monospace" font-size="10.00"> CHAN </text>
</g>
<!-- A24&#45;&gt;A25 -->
<g id="edge156" class="edge"><title>A24&#45;&gt;A25</title>
<path fill="none" stroke="black" d="M124.269,-570.279C129.832,-560.89 132.903,-550.376 129.535,-540 128.505,-536.827 127.196,-533.685 125.688,-530.614"/>
<polygon fill="black" stroke="black" points="128.598,-528.649 120.649,-521.645 122.496,-532.078 128.598,-528.649"/>
<text text-anchor="middle" x="143.035" y="-543" font-family="Courier,monospace" font-size="10.00"> TS </text>
</g>
<!-- A26 -->
<g id="node27" class="node"><title>A26</title>
<polygon fill="#aaffaa" stroke="#aaffaa" points="162.535,-407.5 22.5353,-407.5 10.5353,-395.5 10.5353,-354.5 22.5353,-342.5 162.535,-342.5 174.535,-354.5 174.535,-395.5 162.535,-407.5"/>
<path fill="#aaffaa" stroke="#aaffaa" d="M22.5353,-407.5C16.5353,-407.5 10.5353,-401.5 10.5353,-395.5"/>
<path fill="#aaffaa" stroke="#aaffaa" d="M10.5353,-354.5C10.5353,-348.5 16.5353,-342.5 22.5353,-342.5"/>
<path fill="#aaffaa" stroke="#aaffaa" d="M162.535,-342.5C168.535,-342.5 174.535,-348.5 174.535,-354.5"/>
<path fill="#aaffaa" stroke="#aaffaa" d="M174.535,-395.5C174.535,-401.5 168.535,-407.5 162.535,-407.5"/>
<polyline fill="none" stroke="black" points="162.535,-407.5 22.5353,-407.5 "/>
<path fill="none" stroke="black" d="M22.5353,-407.5C16.5353,-407.5 10.5353,-401.5 10.5353,-395.5"/>
<polyline fill="none" stroke="black" points="10.5353,-395.5 10.5353,-354.5 "/>
<path fill="none" stroke="black" d="M10.5353,-354.5C10.5353,-348.5 16.5353,-342.5 22.5353,-342.5"/>
<polyline fill="none" stroke="black" points="22.5353,-342.5 162.535,-342.5 "/>
<path fill="none" stroke="black" d="M162.535,-342.5C168.535,-342.5 174.535,-348.5 174.535,-354.5"/>
<polyline fill="none" stroke="black" points="174.535,-354.5 174.535,-395.5 "/>
<path fill="none" stroke="black" d="M174.535,-395.5C174.535,-401.5 168.535,-407.5 162.535,-407.5"/>
<text text-anchor="start" x="80.5353" y="-389.7" font-family="Helvetica,sans-Serif" font-size="12.00">A26</text>
<text text-anchor="start" x="28.0353" y="-371.2" font-family="Helvetica,sans-Serif" font-size="12.00">AnalysisThreadSeries</text>
<text text-anchor="start" x="23.0353" y="-353.2" font-family="Helvetica,sans-Serif" font-size="12.00">AnalysisThreadSeries.h</text>
</g>
<!-- A25&#45;&gt;A26 -->
<g id="edge158" class="edge"><title>A25&#45;&gt;A26</title>
<path fill="none" stroke="black" d="M19.0076,-456.304C12.909,-451.006 7.55344,-444.934 3.53529,-438 -1.44503,-429.406 -0.64523,-421.688 3.77455,-414.849"/>
<polygon fill="black" stroke="black" points="6.50934,-417.039 10.4964,-407.223 1.25823,-412.411 6.50934,-417.039"/>
<text text-anchor="middle" x="37.0353" y="-429" font-family="Courier,monospace" font-size="10.00"> ADCOutput </text>
</g>
<!-- A25&#45;&gt;A26 -->
<g id="edge160" class="edge"><title>A25&#45;&gt;A26</title>
<path fill="none" stroke="black" d="M92.5353,-456.332C92.5353,-444.407 92.5353,-430.732 92.5353,-418.042"/>
<polygon fill="black" stroke="black" points="96.0354,-417.673 92.5353,-407.673 89.0354,-417.673 96.0354,-417.673"/>
<text text-anchor="middle" x="110.535" y="-429" font-family="Courier,monospace" font-size="10.00"> CHAN </text>
</g>
<!-- A25&#45;&gt;A26 -->
<g id="edge162" class="edge"><title>A25&#45;&gt;A26</title>
<path fill="none" stroke="black" d="M124.269,-456.279C129.832,-446.89 132.903,-436.376 129.535,-426 128.505,-422.827 127.196,-419.685 125.688,-416.614"/>
<polygon fill="black" stroke="black" points="128.598,-414.649 120.649,-407.645 122.496,-418.078 128.598,-414.649"/>
<text text-anchor="middle" x="143.035" y="-429" font-family="Courier,monospace" font-size="10.00"> TS </text>
</g>
<!-- A27 -->
<g id="node28" class="node"><title>A27</title>
<polygon fill="#aaffaa" stroke="#aaffaa" points="162.535,-293.5 22.5353,-293.5 10.5353,-281.5 10.5353,-240.5 22.5353,-228.5 162.535,-228.5 174.535,-240.5 174.535,-281.5 162.535,-293.5"/>
<path fill="#aaffaa" stroke="#aaffaa" d="M22.5353,-293.5C16.5353,-293.5 10.5353,-287.5 10.5353,-281.5"/>
<path fill="#aaffaa" stroke="#aaffaa" d="M10.5353,-240.5C10.5353,-234.5 16.5353,-228.5 22.5353,-228.5"/>
<path fill="#aaffaa" stroke="#aaffaa" d="M162.535,-228.5C168.535,-228.5 174.535,-234.5 174.535,-240.5"/>
<path fill="#aaffaa" stroke="#aaffaa" d="M174.535,-281.5C174.535,-287.5 168.535,-293.5 162.535,-293.5"/>
<polyline fill="none" stroke="black" points="162.535,-293.5 22.5353,-293.5 "/>
<path fill="none" stroke="black" d="M22.5353,-293.5C16.5353,-293.5 10.5353,-287.5 10.5353,-281.5"/>
<polyline fill="none" stroke="black" points="10.5353,-281.5 10.5353,-240.5 "/>
<path fill="none" stroke="black" d="M10.5353,-240.5C10.5353,-234.5 16.5353,-228.5 22.5353,-228.5"/>
<polyline fill="none" stroke="black" points="22.5353,-228.5 162.535,-228.5 "/>
<path fill="none" stroke="black" d="M162.535,-228.5C168.535,-228.5 174.535,-234.5 174.535,-240.5"/>
<polyline fill="none" stroke="black" points="174.535,-240.5 174.535,-281.5 "/>
<path fill="none" stroke="black" d="M174.535,-281.5C174.535,-287.5 168.535,-293.5 162.535,-293.5"/>
<text text-anchor="start" x="80.5353" y="-275.7" font-family="Helvetica,sans-Serif" font-size="12.00">A27</text>
<text text-anchor="start" x="28.0353" y="-257.2" font-family="Helvetica,sans-Serif" font-size="12.00">AnalysisThreadSeries</text>
<text text-anchor="start" x="23.0353" y="-239.2" font-family="Helvetica,sans-Serif" font-size="12.00">AnalysisThreadSeries.h</text>
</g>
<!-- A26&#45;&gt;A27 -->
<g id="edge164" class="edge"><title>A26&#45;&gt;A27</title>
<path fill="none" stroke="black" d="M19.0076,-342.304C12.909,-337.006 7.55344,-330.934 3.53529,-324 -1.44503,-315.406 -0.64523,-307.688 3.77455,-300.849"/>
<polygon fill="black" stroke="black" points="6.50934,-303.039 10.4964,-293.223 1.25823,-298.411 6.50934,-303.039"/>
<text text-anchor="middle" x="37.0353" y="-315" font-family="Courier,monospace" font-size="10.00"> ADCOutput </text>
</g>
<!-- A26&#45;&gt;A27 -->
<g id="edge166" class="edge"><title>A26&#45;&gt;A27</title>
<path fill="none" stroke="black" d="M92.5353,-342.332C92.5353,-330.407 92.5353,-316.732 92.5353,-304.042"/>
<polygon fill="black" stroke="black" points="96.0354,-303.673 92.5353,-293.673 89.0354,-303.673 96.0354,-303.673"/>
<text text-anchor="middle" x="110.535" y="-315" font-family="Courier,monospace" font-size="10.00"> CHAN </text>
</g>
<!-- A26&#45;&gt;A27 -->
<g id="edge168" class="edge"><title>A26&#45;&gt;A27</title>
<path fill="none" stroke="black" d="M124.269,-342.279C129.832,-332.89 132.903,-322.376 129.535,-312 128.505,-308.827 127.196,-305.685 125.688,-302.614"/>
<polygon fill="black" stroke="black" points="128.598,-300.649 120.649,-293.645 122.496,-304.078 128.598,-300.649"/>
<text text-anchor="middle" x="143.035" y="-315" font-family="Courier,monospace" font-size="10.00"> TS </text>
</g>
<!-- A28 -->
<g id="node29" class="node"><title>A28</title>
<polygon fill="#aaffaa" stroke="#aaffaa" points="162.535,-179.5 22.5353,-179.5 10.5353,-167.5 10.5353,-126.5 22.5353,-114.5 162.535,-114.5 174.535,-126.5 174.535,-167.5 162.535,-179.5"/>
<path fill="#aaffaa" stroke="#aaffaa" d="M22.5353,-179.5C16.5353,-179.5 10.5353,-173.5 10.5353,-167.5"/>
<path fill="#aaffaa" stroke="#aaffaa" d="M10.5353,-126.5C10.5353,-120.5 16.5353,-114.5 22.5353,-114.5"/>
<path fill="#aaffaa" stroke="#aaffaa" d="M162.535,-114.5C168.535,-114.5 174.535,-120.5 174.535,-126.5"/>
<path fill="#aaffaa" stroke="#aaffaa" d="M174.535,-167.5C174.535,-173.5 168.535,-179.5 162.535,-179.5"/>
<polyline fill="none" stroke="black" points="162.535,-179.5 22.5353,-179.5 "/>
<path fill="none" stroke="black" d="M22.5353,-179.5C16.5353,-179.5 10.5353,-173.5 10.5353,-167.5"/>
<polyline fill="none" stroke="black" points="10.5353,-167.5 10.5353,-126.5 "/>
<path fill="none" stroke="black" d="M10.5353,-126.5C10.5353,-120.5 16.5353,-114.5 22.5353,-114.5"/>
<polyline fill="none" stroke="black" points="22.5353,-114.5 162.535,-114.5 "/>
<path fill="none" stroke="black" d="M162.535,-114.5C168.535,-114.5 174.535,-120.5 174.535,-126.5"/>
<polyline fill="none" stroke="black" points="174.535,-126.5 174.535,-167.5 "/>
<path fill="none" stroke="black" d="M174.535,-167.5C174.535,-173.5 168.535,-179.5 162.535,-179.5"/>
<text text-anchor="start" x="80.5353" y="-161.7" font-family="Helvetica,sans-Serif" font-size="12.00">A28</text>
<text text-anchor="start" x="28.0353" y="-143.2" font-family="Helvetica,sans-Serif" font-size="12.00">AnalysisThreadSeries</text>
<text text-anchor="start" x="23.0353" y="-125.2" font-family="Helvetica,sans-Serif" font-size="12.00">AnalysisThreadSeries.h</text>
</g>
<!-- A27&#45;&gt;A28 -->
<g id="edge170" class="edge"><title>A27&#45;&gt;A28</title>
<path fill="none" stroke="black" d="M19.0076,-228.304C12.909,-223.006 7.55344,-216.934 3.53529,-210 -1.44503,-201.406 -0.64523,-193.688 3.77455,-186.849"/>
<polygon fill="black" stroke="black" points="6.50934,-189.039 10.4964,-179.223 1.25823,-184.411 6.50934,-189.039"/>
<text text-anchor="middle" x="37.0353" y="-201" font-family="Courier,monospace" font-size="10.00"> ADCOutput </text>
</g>
<!-- A27&#45;&gt;A28 -->
<g id="edge172" class="edge"><title>A27&#45;&gt;A28</title>
<path fill="none" stroke="black" d="M92.5353,-228.332C92.5353,-216.407 92.5353,-202.732 92.5353,-190.042"/>
<polygon fill="black" stroke="black" points="96.0354,-189.673 92.5353,-179.673 89.0354,-189.673 96.0354,-189.673"/>
<text text-anchor="middle" x="110.535" y="-201" font-family="Courier,monospace" font-size="10.00"> CHAN </text>
</g>
<!-- A27&#45;&gt;A28 -->
<g id="edge174" class="edge"><title>A27&#45;&gt;A28</title>
<path fill="none" stroke="black" d="M124.269,-228.279C129.832,-218.89 132.903,-208.376 129.535,-198 128.505,-194.827 127.196,-191.685 125.688,-188.614"/>
<polygon fill="black" stroke="black" points="128.598,-186.649 120.649,-179.645 122.496,-190.078 128.598,-186.649"/>
<text text-anchor="middle" x="143.035" y="-201" font-family="Courier,monospace" font-size="10.00"> TS </text>
</g>
<!-- A29 -->
<g id="node30" class="node"><title>A29</title>
<polygon fill="#aaffaa" stroke="#aaffaa" points="162.535,-65.5 22.5353,-65.5 10.5353,-53.5 10.5353,-12.5 22.5353,-0.5 162.535,-0.5 174.535,-12.5 174.535,-53.5 162.535,-65.5"/>
<path fill="#aaffaa" stroke="#aaffaa" d="M22.5353,-65.5C16.5353,-65.5 10.5353,-59.5 10.5353,-53.5"/>
<path fill="#aaffaa" stroke="#aaffaa" d="M10.5353,-12.5C10.5353,-6.5 16.5353,-0.5 22.5353,-0.5"/>
<path fill="#aaffaa" stroke="#aaffaa" d="M162.535,-0.5C168.535,-0.5 174.535,-6.5 174.535,-12.5"/>
<path fill="#aaffaa" stroke="#aaffaa" d="M174.535,-53.5C174.535,-59.5 168.535,-65.5 162.535,-65.5"/>
<polyline fill="none" stroke="black" points="162.535,-65.5 22.5353,-65.5 "/>
<path fill="none" stroke="black" d="M22.5353,-65.5C16.5353,-65.5 10.5353,-59.5 10.5353,-53.5"/>
<polyline fill="none" stroke="black" points="10.5353,-53.5 10.5353,-12.5 "/>
<path fill="none" stroke="black" d="M10.5353,-12.5C10.5353,-6.5 16.5353,-0.5 22.5353,-0.5"/>
<polyline fill="none" stroke="black" points="22.5353,-0.5 162.535,-0.5 "/>
<path fill="none" stroke="black" d="M162.535,-0.5C168.535,-0.5 174.535,-6.5 174.535,-12.5"/>
<polyline fill="none" stroke="black" points="174.535,-12.5 174.535,-53.5 "/>
<path fill="none" stroke="black" d="M174.535,-53.5C174.535,-59.5 168.535,-65.5 162.535,-65.5"/>
<text text-anchor="start" x="80.5353" y="-47.7" font-family="Helvetica,sans-Serif" font-size="12.00">A29</text>
<text text-anchor="start" x="28.0353" y="-29.2" font-family="Helvetica,sans-Serif" font-size="12.00">AnalysisThreadSeries</text>
<text text-anchor="start" x="23.0353" y="-11.2" font-family="Helvetica,sans-Serif" font-size="12.00">AnalysisThreadSeries.h</text>
</g>
<!-- A28&#45;&gt;A29 -->
<g id="edge176" class="edge"><title>A28&#45;&gt;A29</title>
<path fill="none" stroke="black" d="M19.0076,-114.304C12.909,-109.006 7.55344,-102.934 3.53529,-96 0.861133,-91.3855 0.861133,-88.6145 3.53529,-84 5.85828,-79.9915 8.62827,-76.271 11.7304,-72.8214"/>
<polygon fill="black" stroke="black" points="14.3113,-75.1927 19.0076,-65.6956 9.41381,-70.1912 14.3113,-75.1927"/>
<text text-anchor="middle" x="37.0353" y="-87" font-family="Courier,monospace" font-size="10.00"> ADCOutput </text>
</g>
<!-- A28&#45;&gt;A29 -->
<g id="edge178" class="edge"><title>A28&#45;&gt;A29</title>
<path fill="none" stroke="black" d="M92.5353,-114.332C92.5353,-102.407 92.5353,-88.7324 92.5353,-76.0415"/>
<polygon fill="black" stroke="black" points="96.0354,-75.6726 92.5353,-65.6726 89.0354,-75.6726 96.0354,-75.6726"/>
<text text-anchor="middle" x="110.535" y="-87" font-family="Courier,monospace" font-size="10.00"> CHAN </text>
</g>
<!-- A28&#45;&gt;A29 -->
<g id="edge180" class="edge"><title>A28&#45;&gt;A29</title>
<path fill="none" stroke="black" d="M120.649,-114.355C124.297,-108.565 127.475,-102.347 129.535,-96 131.85,-88.8667 131.122,-81.6678 128.634,-74.8142"/>
<polygon fill="black" stroke="black" points="131.752,-73.2216 124.269,-65.721 125.441,-76.2508 131.752,-73.2216"/>
<text text-anchor="middle" x="143.035" y="-87" font-family="Courier,monospace" font-size="10.00"> TS </text>
</g>
<!-- SIMDAQ1 -->
<g id="node31" class="node"><title>SIMDAQ1</title>
<polygon fill="#ffaaff" stroke="#ffaaff" points="143.535,-3485.5 41.5353,-3485.5 29.5353,-3473.5 29.5353,-3432.5 41.5353,-3420.5 143.535,-3420.5 155.535,-3432.5 155.535,-3473.5 143.535,-3485.5"/>
<path fill="#ffaaff" stroke="#ffaaff" d="M41.5353,-3485.5C35.5353,-3485.5 29.5353,-3479.5 29.5353,-3473.5"/>
<path fill="#ffaaff" stroke="#ffaaff" d="M29.5353,-3432.5C29.5353,-3426.5 35.5353,-3420.5 41.5353,-3420.5"/>
<path fill="#ffaaff" stroke="#ffaaff" d="M143.535,-3420.5C149.535,-3420.5 155.535,-3426.5 155.535,-3432.5"/>
<path fill="#ffaaff" stroke="#ffaaff" d="M155.535,-3473.5C155.535,-3479.5 149.535,-3485.5 143.535,-3485.5"/>
<polyline fill="none" stroke="black" points="143.535,-3485.5 41.5353,-3485.5 "/>
<path fill="none" stroke="black" d="M41.5353,-3485.5C35.5353,-3485.5 29.5353,-3479.5 29.5353,-3473.5"/>
<polyline fill="none" stroke="black" points="29.5353,-3473.5 29.5353,-3432.5 "/>
<path fill="none" stroke="black" d="M29.5353,-3432.5C29.5353,-3426.5 35.5353,-3420.5 41.5353,-3420.5"/>
<polyline fill="none" stroke="black" points="41.5353,-3420.5 143.535,-3420.5 "/>
<path fill="none" stroke="black" d="M143.535,-3420.5C149.535,-3420.5 155.535,-3426.5 155.535,-3432.5"/>
<polyline fill="none" stroke="black" points="155.535,-3432.5 155.535,-3473.5 "/>
<path fill="none" stroke="black" d="M155.535,-3473.5C155.535,-3479.5 149.535,-3485.5 143.535,-3485.5"/>
<text text-anchor="start" x="65.0353" y="-3467.7" font-family="Helvetica,sans-Serif" font-size="12.00">SIMDAQ1</text>
<text text-anchor="start" x="47.5353" y="-3449.2" font-family="Helvetica,sans-Serif" font-size="12.00">SIMDAQThread</text>
<text text-anchor="start" x="42.0353" y="-3431.2" font-family="Helvetica,sans-Serif" font-size="12.00">SIMDAQThread.h</text>
</g>
<!-- SIMDAQ1&#45;&gt;A00 -->
<g id="edge2" class="edge"><title>SIMDAQ1&#45;&gt;A00</title>
<path fill="none" stroke="black" d="M29.3092,-3428.14C19.002,-3421.24 9.69646,-3412.63 3.53529,-3402 -1.44503,-3393.41 -0.64523,-3385.69 3.77455,-3378.85"/>
<polygon fill="black" stroke="black" points="6.50934,-3381.04 10.4964,-3371.22 1.25823,-3376.41 6.50934,-3381.04"/>
<text text-anchor="middle" x="37.0353" y="-3393" font-family="Courier,monospace" font-size="10.00"> ADCOutput </text>
</g>
<!-- SIMDAQ1&#45;&gt;A00 -->
<g id="edge4" class="edge"><title>SIMDAQ1&#45;&gt;A00</title>
<path fill="none" stroke="black" d="M92.5353,-3420.33C92.5353,-3408.41 92.5353,-3394.73 92.5353,-3382.04"/>
<polygon fill="black" stroke="black" points="96.0354,-3381.67 92.5353,-3371.67 89.0354,-3381.67 96.0354,-3381.67"/>
<text text-anchor="middle" x="110.535" y="-3393" font-family="Courier,monospace" font-size="10.00"> CHAN </text>
</g>
<!-- SIMDAQ1&#45;&gt;A00 -->
<g id="edge6" class="edge"><title>SIMDAQ1&#45;&gt;A00</title>
<path fill="none" stroke="black" d="M124.269,-3420.28C129.832,-3410.89 132.903,-3400.38 129.535,-3390 128.505,-3386.83 127.196,-3383.69 125.688,-3380.61"/>
<polygon fill="black" stroke="black" points="128.598,-3378.65 120.649,-3371.65 122.496,-3382.08 128.598,-3378.65"/>
<text text-anchor="middle" x="143.035" y="-3393" font-family="Courier,monospace" font-size="10.00"> TS </text>
</g>
</g>
</svg>
